<svg width="128" height="128" viewBox="0 0 128 128" fill="none" xmlns="http://www.w3.org/2000/svg">
<path d="M36.379 53.6399C36.379 55.1999 36.547 56.4649 36.844 57.3899C37.18 58.3159 37.602 59.328 38.191 60.422C38.398 60.758 38.484 61.0939 38.484 61.3909C38.484 61.8089 38.23 62.2309 37.684 62.6519L35.031 64.4219C34.652 64.6719 34.273 64.8009 33.938 64.8009C33.516 64.8009 33.094 64.5899 32.672 64.2109C32.1057 63.6 31.5981 62.937 31.156 62.2309C30.6875 61.4208 30.2524 60.5918 29.852 59.7459C26.57 63.6209 22.442 65.5589 17.472 65.5589C13.937 65.5589 11.117 64.5469 9.05101 62.5269C6.98801 60.5039 5.93701 57.809 5.93701 54.441C5.93701 50.863 7.19901 47.9569 9.77001 45.7699C12.336 43.5779 15.746 42.4839 20.086 42.4839C21.516 42.4839 22.988 42.6089 24.546 42.8199C26.106 43.0309 27.707 43.3669 29.391 43.7459V40.6719C29.391 37.4719 28.715 35.2419 27.411 33.9379C26.061 32.6329 23.788 31.9999 20.546 31.9999C19.073 31.9999 17.558 32.1679 15.999 32.5469C14.4512 32.9157 12.9316 33.3946 11.452 33.9799C10.776 34.2729 10.272 34.4409 9.97901 34.5269C9.68301 34.6089 9.47201 34.6519 9.30401 34.6519C8.71401 34.6519 8.42101 34.2299 8.42101 33.3479V31.2849C8.42101 30.6089 8.50301 30.1049 8.71401 29.8089C8.92401 29.5159 9.30401 29.2229 9.89401 28.9259C11.366 28.1679 13.136 27.5359 15.198 27.0309C17.261 26.4839 19.452 26.2309 21.768 26.2309C26.776 26.2309 30.44 27.3669 32.8 29.6409C35.116 31.9139 36.292 35.3669 36.292 39.9999V53.6399H36.379ZM19.285 60.0429C20.672 60.0429 22.105 59.789 23.621 59.285C25.137 58.777 26.484 57.8519 27.621 56.5899C28.293 55.7899 28.801 54.9059 29.051 53.8949C29.305 52.8829 29.473 51.6649 29.473 50.2299V48.4649C28.1975 48.1516 26.905 47.9115 25.602 47.7459C24.2882 47.5803 22.9653 47.4968 21.641 47.4959C18.821 47.4959 16.758 48.0429 15.367 49.1799C13.98 50.3159 13.305 51.9139 13.305 54.0199C13.305 55.9999 13.809 57.4729 14.863 58.4839C15.875 59.5349 17.348 60.0429 19.285 60.0429ZM53.094 64.5899C52.336 64.5899 51.832 64.4649 51.496 64.1679C51.156 63.9139 50.863 63.3279 50.609 62.5279L40.715 29.9799C40.465 29.1369 40.335 28.5899 40.335 28.2929C40.335 27.6209 40.672 27.2429 41.348 27.2429H45.473C46.273 27.2429 46.82 27.3669 47.117 27.6639C47.453 27.9139 47.707 28.5039 47.957 29.3039L55.031 57.1799L61.601 29.3049C61.809 28.4649 62.063 27.9149 62.398 27.6649C62.738 27.4099 63.328 27.2419 64.086 27.2419H67.453C68.253 27.2419 68.801 27.3669 69.137 27.6639C69.473 27.9139 69.77 28.5039 69.937 29.3039L76.59 57.5159L83.875 29.3049C84.125 28.4649 84.422 27.9149 84.715 27.6649C85.051 27.4099 85.602 27.2419 86.359 27.2419H90.273C90.949 27.2419 91.328 27.5779 91.328 28.2929C91.328 28.5029 91.285 28.7149 91.242 28.9689C91.199 29.2229 91.117 29.5589 90.949 30.0189L80.801 62.5699C80.547 63.4099 80.254 63.9569 79.914 64.2099C79.578 64.4649 79.031 64.6329 78.316 64.6329H74.696C73.895 64.6329 73.348 64.5029 73.012 64.2109C72.672 63.9139 72.379 63.3669 72.211 62.5269L65.684 35.3669L59.199 62.4839C58.989 63.3279 58.739 63.8749 58.399 64.1679C58.062 64.4649 57.473 64.5899 56.715 64.5899H53.094ZM107.199 65.7269C105.012 65.7269 102.82 65.4729 100.715 64.9689C98.609 64.4649 96.969 63.914 95.875 63.285C95.199 62.906 94.738 62.4849 94.57 62.1049C94.4041 61.7336 94.3175 61.3317 94.316 60.9249V58.7769C94.316 57.8949 94.652 57.4729 95.286 57.4729C95.536 57.4729 95.789 57.5159 96.043 57.6019C96.293 57.6839 96.672 57.8519 97.093 58.0199C98.5815 58.6736 100.135 59.1684 101.727 59.4959C103.41 59.8319 105.051 59.9999 106.738 59.9999C109.391 59.9999 111.453 59.5349 112.883 58.6099C114.316 57.6839 115.074 56.3359 115.074 54.6099C115.074 53.4299 114.695 52.4649 113.938 51.6639C113.18 50.8639 111.746 50.1479 109.684 49.4729L103.578 47.5779C100.504 46.6089 98.23 45.1799 96.844 43.2849C95.454 41.4299 94.738 39.3669 94.738 37.1799C94.738 35.4099 95.118 33.852 95.875 32.504C96.6267 31.1494 97.6603 29.9719 98.906 29.0509C100.168 28.0859 101.602 27.3669 103.286 26.8629C104.969 26.3589 106.738 26.1479 108.59 26.1479C109.516 26.1479 110.484 26.1909 111.41 26.3159C112.379 26.4409 113.262 26.6089 114.148 26.7769C114.988 26.9879 115.789 27.1989 116.547 27.4529C117.305 27.7069 117.895 27.9569 118.317 28.2109C118.907 28.5469 119.328 28.8829 119.578 29.2609C119.832 29.6009 119.957 30.0629 119.957 30.6519V32.6319C119.957 33.5159 119.621 33.9799 118.988 33.9799C118.652 33.9799 118.105 33.8089 117.391 33.4729C114.988 32.3789 112.293 31.8319 109.305 31.8319C106.906 31.8319 105.012 32.2109 103.707 33.0119C102.398 33.8089 101.727 35.0319 101.727 36.7579C101.727 37.9379 102.148 38.9489 102.988 39.7459C103.832 40.5459 105.391 41.3479 107.621 42.0619L113.601 43.9569C116.633 44.9259 118.821 46.2729 120.125 47.9999C121.43 49.7269 122.063 51.7069 122.063 53.8949C122.063 55.7069 121.683 57.3479 120.969 58.7769C120.211 60.2109 119.199 61.4729 117.895 62.4839C116.59 63.5349 115.031 64.2929 113.223 64.8439C111.328 65.4299 109.348 65.7269 107.199 65.7269Z" fill="#3E3F40"/>
<path d="M118 73.3479C113.568 73.4109 108.336 74.3999 104.379 77.1799C103.156 78.0629 103.367 79.2419 104.715 79.0739C109.223 78.5269 119.155 77.348 120.925 79.621C122.695 81.851 118.949 91.241 117.262 95.411C116.758 96.671 117.852 97.1799 118.988 96.2109C126.398 89.9799 128.336 76.9689 126.82 75.0739C126.063 74.1489 122.432 73.2839 118 73.3479ZM1.63003 75.8589C0.703033 75.9749 0.283033 77.095 1.26203 77.98C17.77 92.882 39.621 101.852 63.875 101.852C81.18 101.852 101.305 96.4219 115.156 86.1919C117.429 84.5039 115.453 81.9379 113.136 82.9879C97.602 89.5579 80.715 92.758 65.348 92.758C42.57 92.758 20.548 86.4849 2.69503 76.1249C2.30503 75.8939 1.94003 75.8209 1.63103 75.8589H1.63003Z" fill="#3E3F40" fill-opacity="0.51"/>
</svg>
