<svg width="128" height="128" viewBox="0 0 128 128" fill="none" xmlns="http://www.w3.org/2000/svg">
<g clip-path="url(#clip0_152_68)">
<path d="M126.739 52.9253C126.392 52.6533 123.152 50.24 116.317 50.24C114.512 50.248 112.712 50.4 110.933 50.696C109.611 41.752 102.349 37.5493 102.013 37.3547L100.179 36.3093L98.9706 38.0267C97.4586 40.336 96.1227 42.72 95.4747 45.3947C94.2507 50.5013 94.9947 55.296 97.624 59.3947C94.4453 61.1413 89.0293 61.296 88 61.3333H4.21864C2.01598 61.336 0.229311 63.0933 0.215978 65.264C0.117311 72.552 1.15731 80.072 3.69864 86.9147C6.60264 94.4293 10.9253 99.9653 16.5466 103.352C22.8453 107.157 33.08 109.333 44.6826 109.333C49.9226 109.349 55.1546 108.883 60.3066 107.936C67.4693 106.637 74.3626 104.168 80.6986 100.629C85.92 97.6453 90.6186 93.8507 94.616 89.3893C101.296 81.928 105.275 73.6213 108.235 66.2373C108.632 66.2373 109.029 66.2373 109.413 66.2373C116.728 66.2373 121.224 63.3493 123.704 60.9307C125.352 59.3867 126.64 57.5067 127.475 55.424L128 53.9093L126.739 52.9253Z" fill="#3E3F40"/>
<path d="M21.3333 58.6667H13.3333C11.8613 58.6667 10.6666 57.472 10.6666 56V48C10.6666 46.528 11.8613 45.3334 13.3333 45.3334H21.3333C22.8053 45.3334 24 46.528 24 48V56C24 57.472 22.8053 58.6667 21.3333 58.6667Z" fill="#3E3F40"/>
<path d="M37.3333 58.6667H29.3333C27.8613 58.6667 26.6666 57.472 26.6666 56V48C26.6666 46.528 27.8613 45.3334 29.3333 45.3334H37.3333C38.8053 45.3334 40 46.528 40 48V56C40 57.472 38.8053 58.6667 37.3333 58.6667Z" fill="#3E3F40"/>
<path d="M53.3333 58.6667H45.3333C43.8613 58.6667 42.6666 57.472 42.6666 56V48C42.6666 46.528 43.8613 45.3334 45.3333 45.3334H53.3333C54.8053 45.3334 56 46.528 56 48V56C56 57.472 54.8053 58.6667 53.3333 58.6667Z" fill="#3E3F40"/>
<path d="M69.3333 58.6667H61.3333C59.8613 58.6667 58.6666 57.472 58.6666 56V48C58.6666 46.528 59.8613 45.3334 61.3333 45.3334H69.3333C70.8053 45.3334 72 46.528 72 48V56C72 57.472 70.8053 58.6667 69.3333 58.6667Z" fill="#3E3F40"/>
<path d="M37.3333 42.6667H29.3333C27.8613 42.6667 26.6666 41.472 26.6666 40V32C26.6666 30.528 27.8613 29.3334 29.3333 29.3334H37.3333C38.8053 29.3334 40 30.528 40 32V40C40 41.472 38.8053 42.6667 37.3333 42.6667Z" fill="#3E3F40"/>
<path d="M53.3333 42.6667H45.3333C43.8613 42.6667 42.6666 41.472 42.6666 40V32C42.6666 30.528 43.8613 29.3334 45.3333 29.3334H53.3333C54.8053 29.3334 56 30.528 56 32V40C56 41.472 54.8053 42.6667 53.3333 42.6667Z" fill="#3E3F40"/>
<path d="M69.3333 42.6667H61.3333C59.8613 42.6667 58.6666 41.472 58.6666 40V32C58.6666 30.528 59.8613 29.3334 61.3333 29.3334H69.3333C70.8053 29.3334 72 30.528 72 32V40C72 41.472 70.8053 42.6667 69.3333 42.6667Z" fill="#3E3F40"/>
<path d="M69.3333 26.6667H61.3333C59.8613 26.6667 58.6666 25.472 58.6666 24V16C58.6666 14.528 59.8613 13.3334 61.3333 13.3334H69.3333C70.8053 13.3334 72 14.528 72 16V24C72 25.472 70.8053 26.6667 69.3333 26.6667Z" fill="#3E3F40"/>
<path d="M85.3333 58.6667H77.3333C75.8613 58.6667 74.6666 57.472 74.6666 56V48C74.6666 46.528 75.8613 45.3334 77.3333 45.3334H85.3333C86.8053 45.3334 88 46.528 88 48V56C88 57.472 86.8053 58.6667 85.3333 58.6667Z" fill="#3E3F40"/>
</g>
<defs>
<clipPath id="clip0_152_68">
<rect width="128" height="128" fill="white"/>
</clipPath>
</defs>
</svg>
