<svg width="128" height="128" viewBox="0 0 128 128" fill="none" xmlns="http://www.w3.org/2000/svg">
<g clip-path="url(#clip0_141_56)">
<path d="M26.666 0C11.97 0 0 11.97 0 26.666C0 39.536 9.181 50.317 21.334 52.796V90.666C21.334 102.436 31.014 112 42.666 112H42.861C44.163 121.023 51.961 128 61.334 128C71.612 128 80 119.612 80 109.334C80 99.056 71.612 90.666 61.334 90.666C51.962 90.666 44.164 97.643 42.861 106.666H42.666C33.929 106.666 26.666 99.514 26.666 90.666V63.779C28.3918 65.5399 30.452 66.9383 32.7256 67.8923C34.9992 68.8462 37.4404 69.3363 39.906 69.334H42.861C44.164 78.357 51.961 85.334 61.334 85.334C70.706 85.334 78.503 78.357 79.804 69.334H90.861C92.164 78.357 99.961 85.334 109.334 85.334C119.612 85.334 128 76.944 128 66.666C128 56.388 119.612 48 109.334 48C99.961 48 92.163 54.977 90.861 64H79.805C78.504 54.977 70.707 48 61.334 48C51.961 48 44.163 54.977 42.861 64H39.906C33.473 64 28.113 59.411 26.918 53.328C41.498 53.192 53.334 41.278 53.334 26.666C53.334 11.97 41.362 0 26.666 0ZM26.666 5.334C29.469 5.32847 32.2455 5.87644 34.8363 6.94649C37.427 8.01654 39.7809 9.5876 41.7631 11.5695C43.7452 13.5515 45.3165 15.9053 46.3867 18.4959C47.457 21.0865 48.0053 23.863 48 26.666C48.0053 29.4691 47.457 32.2457 46.3868 34.8364C45.3165 37.4271 43.7453 39.7811 41.7632 41.7632C39.7811 43.7453 37.4271 45.3165 34.8364 46.3868C32.2457 47.457 29.4691 48.0053 26.666 48C23.863 48.0053 21.0865 47.457 18.4959 46.3867C15.9053 45.3165 13.5515 43.7452 11.5695 41.7631C9.5876 39.7809 8.01654 37.427 6.94649 34.8363C5.87644 32.2455 5.32847 29.469 5.334 26.666C5.32847 23.8631 5.87646 21.0867 6.94653 18.4961C8.0166 15.9054 9.58769 13.5516 11.5697 11.5697C13.5516 9.58769 15.9054 8.0166 18.4961 6.94653C21.0867 5.87646 23.8631 5.32847 26.666 5.334ZM21.451 12.875C18.67 12.889 16 15.123 16 18.166V35.209C16 39.252 20.709 41.872 24.145 39.742L37.779 31.287C41.036 29.267 41.053 24.285 37.811 22.242L24.176 13.652C23.361 13.1369 22.4151 12.8672 21.451 12.875ZM21.334 18.166L34.969 26.754L21.334 35.209V18.166ZM61.334 53.334C63.0863 53.3285 64.8225 53.6695 66.4425 54.3375C68.0625 55.0056 69.5344 55.9874 70.7735 57.2265C72.0126 58.4656 72.9944 59.9375 73.6625 61.5575C74.3305 63.1775 74.6715 64.9137 74.666 66.666C74.6714 68.4184 74.3303 70.1546 73.6622 71.7746C72.9942 73.3947 72.0124 74.8667 70.7733 76.1059C69.5343 77.3452 68.0625 78.3272 66.4425 78.9955C64.8225 79.6638 63.0864 80.0051 61.334 80C59.5815 80.0053 57.8452 79.664 56.2251 78.9958C54.6049 78.3275 53.1329 77.3456 51.8937 76.1063C50.6544 74.8671 49.6725 73.3951 49.0042 71.7749C48.336 70.1548 47.9947 68.4185 48 66.666C47.9949 64.9136 48.3362 63.1775 49.0045 61.5575C49.6728 59.9375 50.6548 58.4657 51.8941 57.2267C53.1333 55.9876 54.6053 55.0058 56.2254 54.3378C57.8454 53.6697 59.5816 53.3286 61.334 53.334ZM109.334 53.334C111.086 53.3285 112.822 53.6695 114.442 54.3375C116.063 55.0056 117.534 55.9874 118.774 57.2265C120.013 58.4656 120.994 59.9375 121.662 61.5575C122.33 63.1775 122.672 64.9137 122.666 66.666C122.671 68.4184 122.33 70.1546 121.662 71.7746C120.994 73.3947 120.012 74.8667 118.773 76.1059C117.534 77.3452 116.062 78.3272 114.442 78.9955C112.823 79.6638 111.086 80.0051 109.334 80C107.581 80.0053 105.845 79.664 104.225 78.9958C102.605 78.3275 101.133 77.3456 99.8937 76.1063C98.6544 74.8671 97.6725 73.3951 97.0042 71.7749C96.336 70.1548 95.9947 68.4185 96 66.666C95.9949 64.9136 96.3362 63.1775 97.0045 61.5575C97.6728 59.9375 98.6548 58.4657 99.8941 57.2267C101.133 55.9876 102.605 55.0058 104.225 54.3378C105.845 53.6697 107.582 53.3286 109.334 53.334ZM66.766 60.285C66.4157 60.2847 66.0687 60.3534 65.7449 60.4873C65.4211 60.6211 65.1269 60.8174 64.879 61.065L58.579 67.359L56.486 65.275C55.9851 64.7759 55.3064 64.4961 54.5993 64.4972C53.8921 64.4983 53.2143 64.7803 52.715 65.281C52.4678 65.5292 52.272 65.8236 52.1386 66.1475C52.0052 66.4714 51.937 66.8184 51.9377 67.1687C51.9384 67.5189 52.0082 67.8656 52.1429 68.1889C52.2777 68.5123 52.4748 68.8059 52.723 69.053L56.697 73.013C57.1971 73.5113 57.8743 73.791 58.5802 73.7908C59.2861 73.7906 59.9632 73.5105 60.463 73.012L68.648 64.838C68.8958 64.5905 69.0925 64.2965 69.2267 63.973C69.3609 63.6495 69.4301 63.3027 69.4303 62.9524C69.4305 62.6021 69.3617 62.2553 69.2278 61.9316C69.0939 61.6079 68.8976 61.3138 68.65 61.066C68.1501 60.5667 67.4725 60.2852 66.766 60.285ZM114.766 60.285C114.416 60.2847 114.069 60.3534 113.745 60.4873C113.421 60.6211 113.127 60.8174 112.879 61.065L106.579 67.359L104.486 65.275C103.985 64.7759 103.306 64.4961 102.599 64.4972C101.892 64.4983 101.214 64.7803 100.715 65.281C100.468 65.5292 100.272 65.8236 100.139 66.1475C100.005 66.4714 99.937 66.8184 99.9377 67.1687C99.9384 67.5189 100.008 67.8656 100.143 68.1889C100.278 68.5123 100.475 68.8059 100.723 69.053L104.697 73.013C105.197 73.5113 105.874 73.791 106.58 73.7908C107.286 73.7906 107.963 73.5105 108.463 73.012L116.648 64.838C116.896 64.5905 117.092 64.2965 117.227 63.973C117.361 63.6495 117.43 63.3027 117.43 62.9524C117.43 62.6021 117.362 62.2553 117.228 61.9316C117.094 61.6079 116.898 61.3138 116.65 61.066C116.15 60.5667 115.473 60.2852 114.766 60.285ZM61.334 96C63.0864 95.9949 64.8225 96.3362 66.4425 97.0045C68.0625 97.6728 69.5343 98.6548 70.7733 99.8941C72.0124 101.133 72.9942 102.605 73.6622 104.225C74.3303 105.845 74.6714 107.582 74.666 109.334C74.6715 111.086 74.3305 112.822 73.6625 114.442C72.9944 116.063 72.0126 117.534 70.7735 118.774C69.5344 120.013 68.0625 120.994 66.4425 121.662C64.8225 122.33 63.0863 122.672 61.334 122.666C59.5816 122.671 57.8454 122.33 56.2254 121.662C54.6053 120.994 53.1333 120.012 51.8941 118.773C50.6548 117.534 49.6728 116.062 49.0045 114.442C48.3362 112.823 47.9949 111.086 48 109.334C47.9947 107.581 48.336 105.845 49.0042 104.225C49.6725 102.605 50.6544 101.133 51.8937 99.8937C53.1329 98.6544 54.6049 97.6725 56.2251 97.0042C57.8452 96.336 59.5815 95.9947 61.334 96ZM56 105.334C53.807 105.334 52 107.141 52 109.334C52 111.529 53.808 113.334 56 113.334C58.192 113.334 60 111.529 60 109.334C60 107.141 58.193 105.334 56 105.334ZM66.666 105.334C64.473 105.334 62.666 107.141 62.666 109.334C62.666 111.529 64.474 113.334 66.666 113.334C68.858 113.334 70.666 111.529 70.666 109.334C70.666 107.141 68.859 105.334 66.666 105.334ZM56 108C56.75 108 57.334 108.585 57.334 109.334C57.334 110.087 56.751 110.666 56 110.666C55.25 110.666 54.666 110.086 54.666 109.334C54.666 108.584 55.251 108 56 108ZM66.666 108C67.416 108 68 108.585 68 109.334C68 110.087 67.417 110.666 66.666 110.666C65.916 110.666 65.334 110.086 65.334 109.334C65.334 108.584 65.917 108 66.666 108Z" fill="#3E3F40"/>
<path d="M109.334 90.666C99.9511 90.666 92.1461 97.659 90.8571 106.697C90.769 106.689 90.6806 106.685 90.5921 106.686L87.8921 106.776C87.1855 106.799 86.5171 107.102 86.0337 107.618C85.5503 108.134 85.2915 108.82 85.3141 109.527C85.3373 110.234 85.6403 110.902 86.1564 111.386C86.6724 111.869 87.3594 112.128 88.0661 112.105L90.7661 112.018C90.7985 112.017 90.8308 112.015 90.8631 112.012C92.1701 121.029 99.9651 128 109.334 128C119.612 128 128 119.612 128 109.334C128 99.056 119.612 90.666 109.334 90.666ZM109.334 96C111.087 95.9949 112.823 96.3363 114.443 97.0046C116.063 97.6729 117.534 98.6549 118.773 99.8941C120.012 101.133 120.994 102.605 121.662 104.225C122.33 105.845 122.672 107.582 122.666 109.334C122.672 111.086 122.331 112.822 121.663 114.443C120.995 116.063 120.013 117.534 118.774 118.774C117.535 120.013 116.063 120.994 114.443 121.662C112.823 122.331 111.086 122.672 109.334 122.666C107.582 122.671 105.846 122.33 104.225 121.662C102.605 120.994 101.133 120.012 99.8942 118.773C98.655 117.534 97.6729 116.062 97.0047 114.442C96.3364 112.823 95.995 111.086 96.0001 109.334C95.9948 107.581 96.3361 105.845 97.0043 104.225C97.6726 102.605 98.6545 101.133 99.8938 99.8937C101.133 98.6544 102.605 97.6725 104.225 97.0042C105.845 96.336 107.582 95.9947 109.334 96Z" fill="#3E3F40" fill-opacity="0.55"/>
</g>
<defs>
<clipPath id="clip0_141_56">
<rect width="128" height="128" fill="white"/>
</clipPath>
</defs>
</svg>
