<svg width="128" height="128" viewBox="0 0 128 128" fill="none" xmlns="http://www.w3.org/2000/svg">
<g clip-path="url(#clip0_141_59)">
<path d="M124.142 63.1486C124.142 55.4409 118.314 48.9546 110.489 47.1039L128.014 0.113037H41.1645L58.7294 47.2522C51.1506 49.2522 45.564 55.6252 45.564 63.1877C45.564 68.745 48.6223 73.673 53.2678 76.7112C51.4356 79.0831 49.3144 81.2705 46.9111 83.3448C42.3876 87.2006 37.3711 90.1637 31.9525 92.1287C27.062 89.1265 24.9437 83.8267 26.858 79.0821C34.3158 77.0078 39.7394 70.6709 39.7394 63.2227C39.7394 54.0711 31.5465 46.6569 21.5174 46.6569C11.4503 46.6569 3.2624 54.1061 3.2624 63.2608C3.2624 67.783 5.29762 71.9315 8.55997 74.8945C8.27394 75.4156 7.98991 75.9316 7.70388 76.4878C4.97358 81.6042 1.87525 87.385 0.691119 93.8712C-1.67214 106.839 2.19928 117.255 11.5323 123.146C16.7909 126.446 22.5805 128.113 28.8162 128.113C39.5313 128.113 50.4155 123.22 60.9286 118.475C68.4295 115.106 76.1723 111.582 83.7941 109.88C86.6074 109.25 89.5407 108.878 92.6391 108.471C98.9128 107.656 105.394 106.804 111.223 103.727C118.029 100.134 122.674 94.1287 124.021 87.2367C125.037 81.9359 124.021 76.601 121.411 71.9315C123.194 69.3515 124.148 66.2867 124.142 63.1486ZM116.197 63.1486C116.197 68.2991 111.59 72.4876 105.926 72.4876C100.261 72.4876 95.6544 68.2991 95.6544 63.1486C95.6544 61.4802 96.1435 59.8879 96.9986 58.5171C97.3236 57.9961 97.7336 57.48 98.1387 57.0341C98.568 56.5755 99.0467 56.1659 99.5658 55.8126L99.6088 55.7735C99.9329 55.5511 100.3 55.3276 100.667 55.1082C100.667 55.1082 100.707 55.1082 100.707 55.0691C100.87 54.9949 101.034 54.8847 101.199 54.8106C101.238 54.8106 101.277 54.7715 101.319 54.7715C101.484 54.7013 101.687 54.6272 101.889 54.552C102.082 54.4846 102.272 54.4104 102.46 54.3296C102.5 54.3296 102.542 54.2895 102.581 54.2895C102.745 54.2554 102.909 54.1803 103.07 54.1452C103.113 54.1452 103.195 54.1061 103.234 54.1061C103.437 54.0711 103.601 54.032 103.804 53.9959H103.847L104.457 53.8827C104.499 53.8827 104.577 53.8827 104.62 53.8476C104.784 53.8476 104.945 53.8085 105.109 53.8085H105.312C105.515 53.8085 105.723 53.7735 105.965 53.7735H106.496C106.656 53.7735 106.782 53.7735 106.942 53.8085H107.024C107.352 53.8486 107.676 53.8827 108.004 53.9578C112.649 54.8456 116.197 58.6274 116.197 63.1486ZM52.5327 7.52315H116.642L101.929 46.9906C101.319 47.1039 100.706 47.2872 100.097 47.4716L84.6112 18.753L69.0815 47.2862C68.4685 47.1029 67.8164 46.9896 67.1673 46.8794L52.5327 7.52315ZM81.6729 59.922C80.8998 56.4379 78.9426 53.3265 76.1723 51.0289L84.6112 35.5403L93.1271 51.3615C90.5999 53.6592 88.7667 56.5872 88.0326 59.922H81.6729ZM61.2567 54.0701C61.4597 54.03 61.6237 53.9959 61.8267 53.9568H61.9478C62.1118 53.9218 62.2768 53.9218 62.4368 53.8817H62.6008C62.7648 53.8817 62.8859 53.8466 63.0499 53.8466H64.6401C64.8001 53.8466 64.9251 53.8817 65.0461 53.8817C65.1281 53.8817 65.1671 53.8817 65.2491 53.9218C65.4131 53.9568 65.5341 53.9568 65.6992 53.9959C65.7372 53.9959 65.7802 53.9959 65.8622 54.031C66.0662 54.0701 66.2692 54.1051 66.4322 54.1442H66.4722C66.6363 54.1793 66.8003 54.2144 66.9603 54.2895C67.0033 54.2895 67.0423 54.3286 67.1243 54.3286C67.2453 54.3637 67.4094 54.4027 67.5304 54.4769C67.5734 54.4769 67.6124 54.512 67.6554 54.512C67.8154 54.5871 67.9804 54.6262 68.1444 54.7003H68.1834C68.3865 54.7705 68.5505 54.8446 68.7145 54.9589H68.7545C68.9175 55.033 69.0815 55.1422 69.2455 55.2164C69.2856 55.2164 69.2856 55.2565 69.3236 55.2565C69.4876 55.3266 69.6096 55.4399 69.7736 55.514L69.8166 55.5491C70.3047 55.8828 70.7537 56.2545 71.1988 56.6263L71.2418 56.6613C71.6488 57.0682 72.0549 57.5141 72.3829 57.9961C73.442 59.4791 74.0551 61.2216 74.0551 63.1115C74.0551 68.263 69.4486 72.4475 63.784 72.4475C58.1193 72.4475 53.5128 68.263 53.5128 63.1115C53.4708 58.7747 56.7722 55.1072 61.2567 54.0701ZM21.1503 53.8075C26.816 53.8075 31.4214 57.9961 31.4214 63.1466C31.4214 68.2981 26.816 72.4856 21.1503 72.4856C15.4857 72.4856 10.8792 68.2981 10.8792 63.1466C10.8792 57.9961 15.4857 53.8075 21.1503 53.8075ZM115.951 85.94C115.056 90.6797 111.832 94.8332 107.106 97.3142C102.663 99.651 97.2016 100.391 91.455 101.131C88.3186 101.538 85.0173 101.984 81.8369 102.688C73.36 104.579 65.2101 108.286 57.3033 111.84C47.1962 116.4 37.6561 120.698 28.8162 120.698C24.2097 120.698 20.0922 119.513 16.1818 117.03C7.21583 111.398 7.66087 100.837 8.72399 95.0556C9.70009 89.6426 12.4314 84.5662 15.0407 79.7124C15.2007 79.4147 15.3257 79.1562 15.4857 78.8586C16.3848 79.1562 17.3219 79.3797 18.299 79.528C16.7519 87.384 21.1503 95.4985 29.7103 99.5027L31.2604 100.242L32.9296 99.6861C40.0634 97.3884 46.6651 93.6468 52.4937 88.6436C55.7951 85.8258 58.6084 82.7886 60.9717 79.4889C61.9088 79.6382 62.8469 79.6773 63.784 79.6773C72.2619 79.6773 79.3916 74.3765 81.4309 67.261H88.2756C90.3148 74.4125 97.4476 79.6763 105.926 79.6763C109.309 79.6763 112.446 78.8245 115.134 77.3796C116.197 80.1583 116.521 83.0471 115.951 85.94Z" fill="#3E3F40"/>
</g>
<defs>
<clipPath id="clip0_141_59">
<rect width="128" height="128" fill="white"/>
</clipPath>
</defs>
</svg>
