<svg width="80" height="80" viewBox="0 0 80 80" fill="none" xmlns="http://www.w3.org/2000/svg">
<path d="M74.0733 0.00596524H5.90329C2.68144 -0.0303942 0.039321 2.55044 0 5.77232V74.2265C0.0379747 77.45 2.67988 80.0334 5.90329 79.9995H74.0733C77.303 80.0396 79.9553 77.4563 80 74.2265V5.76739C79.9539 2.53913 77.3015 -0.0415506 74.0733 0.000506837" fill="#3E3F40"/>
<path d="M56.3103 68.1651H68.1638L68.1687 47.2234C68.1687 36.9428 65.9536 29.0403 53.9396 29.0403C49.3467 28.8698 45.0324 31.2393 42.7121 35.2067H42.5528V29.9898H31.1734V68.1638H43.0269V49.2793C43.0269 44.2995 43.9715 39.4765 50.1452 39.4765C56.2312 39.4765 56.3103 45.175 56.3103 49.6016V68.1651Z" fill="white"/>
<path d="M10.9188 17.894C10.9195 21.6931 13.9997 24.7724 17.7987 24.7717C19.6231 24.7714 21.3726 24.0463 22.6624 22.756C23.9522 21.4658 24.6766 19.716 24.6762 17.8916C24.6756 14.0925 21.5953 11.0132 17.7963 11.0139C13.9973 11.0146 10.9181 14.0949 10.9188 17.894Z" fill="white"/>
<path d="M11.8596 68.1651H23.7255V29.9898H11.8596V68.1651Z" fill="white"/>
</svg>
