<svg width="128" height="128" viewBox="0 0 128 128" fill="none" xmlns="http://www.w3.org/2000/svg">
<path d="M116.904 98.49L67.4349 127.072C66.392 127.679 65.2067 127.999 63.9999 127.999C62.7931 127.999 61.6078 127.679 60.5649 127.072L11.0959 98.491C8.96589 97.254 7.66089 94.987 7.66089 92.581V35.419C7.66089 32.946 8.96589 30.747 11.0959 29.51L60.5649 0.928035C61.6078 0.320626 62.793 0.000610352 63.9999 0.000610352C65.2067 0.000610352 66.392 0.320626 67.4349 0.928035L116.904 29.509C119.034 30.746 120.339 33.013 120.339 35.419V92.582C120.271 94.987 118.965 97.253 116.904 98.49Z" fill="#3E3F40"/>
<path d="M63.9311 8.68994C62.9011 8.68994 61.8701 8.96694 60.9761 9.51594L18.2411 34.1819C16.3861 35.2119 15.2881 37.2039 15.2881 39.2659V88.5959C15.2881 90.7259 16.3861 92.6509 18.2411 93.6819L60.9761 118.347C61.8701 118.897 62.9001 119.171 63.9311 119.171C64.9611 119.171 65.9931 118.897 66.8861 118.347L109.621 93.6819C111.476 92.6519 112.576 90.6579 112.576 88.5969V39.2659C112.576 37.1359 111.476 35.2119 109.621 34.1819L66.8861 9.51594C65.9961 8.97341 64.9734 8.68787 63.9311 8.69094V8.68994ZM63.9311 10.7519C64.6181 10.7519 65.2371 10.9589 65.8551 11.3019L108.59 35.9679C109.173 36.3166 109.656 36.8095 109.993 37.3993C110.33 37.9891 110.51 38.6557 110.514 39.3349V88.6649C110.514 90.0399 109.758 91.3449 108.59 92.0319L65.8551 116.698C65.2371 117.041 64.6181 117.248 63.9311 117.248C63.2514 117.245 62.5856 117.055 62.0071 116.698L19.2721 92.0319C18.6893 91.6834 18.2061 91.1906 17.8691 90.601C17.5321 90.0114 17.3527 89.345 17.3481 88.6659V39.3349C17.3481 37.9599 18.1041 36.6549 19.2721 35.9679L62.0071 11.3019C62.6261 10.9589 63.3131 10.7519 63.9311 10.7519ZM64.1711 30.1269C63.2781 31.2269 61.7671 32.3949 63.4161 34.8679C63.9661 35.4859 64.2401 36.7919 64.1721 37.2039C64.1721 37.2039 66.6451 35.7619 65.1331 33.1509C64.2401 31.7769 63.8271 30.6079 64.1711 30.1269ZM61.4241 32.6699C60.8051 33.4259 59.8441 34.1809 60.9431 35.8989C61.2861 36.2419 61.4231 37.1359 61.4231 37.4109C61.4231 37.4109 63.0731 36.4489 62.0431 34.6629C61.4241 33.7699 61.1501 32.9449 61.4241 32.6699ZM56.4071 38.5799C56.2252 38.5802 56.0509 38.6526 55.9223 38.7812C55.7937 38.9098 55.7213 39.0841 55.7211 39.2659C55.7211 41.6019 56.0641 49.6399 59.5001 53.5559C59.5604 53.6231 59.6345 53.6764 59.7174 53.7121C59.8002 53.7479 59.8899 53.7652 59.9801 53.7629H65.7521C65.8424 53.7654 65.9321 53.7483 66.0152 53.7127C66.0982 53.6771 66.1726 53.624 66.2331 53.5569C69.6691 49.7089 70.0121 41.6699 70.0121 39.2659C70.0118 39.0836 69.9392 38.9089 69.8102 38.7801C69.6812 38.6513 69.5064 38.5789 69.3241 38.5789L56.4071 38.5799ZM58.4001 40.7079H67.4701C67.6522 40.7087 67.8267 40.7815 67.9553 40.9104C68.084 41.0393 68.1566 41.2138 68.1571 41.3959C68.1571 43.3199 67.8131 48.7459 65.4771 51.5639C65.2711 51.7009 65.1341 51.7709 64.9281 51.7709H60.8741C60.7837 51.7733 60.6939 51.7561 60.6108 51.7203C60.5278 51.6846 60.4535 51.6312 60.3931 51.5639C58.0571 48.8159 57.7831 43.3199 57.7131 41.3959C57.7136 41.2138 57.7861 41.0393 57.9148 40.9104C58.0435 40.7815 58.218 40.7087 58.4001 40.7079ZM67.0571 45.3799C67.0571 45.3799 66.9891 45.9999 65.3401 46.6179C63.0731 47.4419 59.0881 46.8919 59.0881 46.8919C59.4311 48.3349 59.9801 49.7089 60.8051 50.7399C60.8741 50.8769 61.0791 50.9449 61.2171 50.9449H64.6531C64.7901 50.9449 64.9271 50.8769 65.0651 50.7399C66.2331 49.3659 66.7831 47.2349 67.0571 45.3799ZM20.2001 48.7469V49.5039H55.3101C55.3101 49.2289 55.2411 49.0219 55.2411 48.7469H20.2001ZM70.5621 48.7469C70.5621 49.0219 70.4931 49.2289 70.4931 49.5039H107.8V48.7469H70.5621ZM47.8881 56.2359C46.8581 56.2359 45.8951 56.3729 45.0021 56.7859C44.1091 57.1289 43.3531 57.6789 42.7351 58.2969C42.0854 58.9446 41.5714 59.7153 41.2231 60.5639C40.8801 61.4579 40.6751 62.3499 40.6751 63.3119V63.3819C40.6751 64.3429 40.8801 65.3059 41.2231 66.1309C41.5671 67.0239 42.0481 67.7789 42.6661 68.3979C43.2841 69.0159 44.0411 69.5659 44.9341 69.9089C45.8539 70.2688 46.8324 70.455 47.8201 70.4579C48.8501 70.4579 49.8111 70.3219 50.7051 69.9089C51.5981 69.5659 52.3551 69.0159 52.9731 68.3979C53.6228 67.7503 54.1368 66.9796 54.4851 66.1309C54.8281 65.2369 55.0331 64.3429 55.0331 63.3809V63.3119C55.0306 62.369 54.8445 61.4357 54.4851 60.5639C54.1411 59.6709 53.6601 58.9159 53.0421 58.2969C52.4241 57.6789 51.6671 57.1289 50.7741 56.7859C49.8544 56.4257 48.8758 56.2392 47.8881 56.2359ZM66.8511 56.2359C65.7511 56.2359 64.8591 56.4419 63.9661 56.7859C63.0731 57.1289 62.3161 57.6789 61.6981 58.2969C61.0917 58.965 60.6036 59.7317 60.2551 60.5639C59.8954 61.4356 59.7089 62.369 59.7061 63.3119V63.3819C59.7061 64.3429 59.9111 65.2369 60.2551 66.1309C60.5981 67.0239 61.0791 67.7789 61.6981 68.3979C62.3161 69.0159 63.0731 69.5659 63.8981 69.9089C64.7674 70.2752 65.7018 70.4619 66.6451 70.4579C67.2641 70.4579 67.8821 70.4579 68.5001 70.3209C68.9811 70.2529 69.5301 70.0469 69.9431 69.8409C70.3551 69.6339 70.7671 69.4269 71.1791 69.0839C71.5921 68.7399 71.9351 68.4649 72.2791 68.0529L70.6991 66.4729C70.0801 67.0229 69.4621 67.4349 68.9121 67.7789C68.3621 68.1219 67.6081 68.2589 66.7831 68.2589C66.1651 68.2589 65.5451 68.0539 64.9961 67.8479C64.4461 67.6419 63.9651 67.2289 63.5531 66.8169C63.1411 66.3359 62.7971 65.8549 62.5911 65.2369C62.3851 64.6169 62.2481 63.9989 62.2481 63.3119V63.2449C62.2481 62.6259 62.3851 62.0069 62.5911 61.3879C62.8661 60.8379 63.1411 60.2899 63.5531 59.8779C63.9753 59.4589 64.4626 59.111 64.9961 58.8479C65.5461 58.5719 66.0961 58.4349 66.7831 58.4349C67.6081 58.4349 68.2931 58.5729 68.9131 58.9159C69.5284 59.2652 70.1043 59.6796 70.6311 60.1519L72.2111 58.3659C71.8671 58.0229 71.5231 57.7479 71.1791 57.4729C70.8361 57.1979 70.4241 56.9919 70.0121 56.7859C69.5321 56.6479 69.1191 56.5109 68.5691 56.3739C68.0191 56.3039 67.4691 56.2359 66.8511 56.2359ZM99.1441 56.4419L93.0971 70.2519H95.5711L97.0131 66.9549H103.471L104.847 70.2529H107.387L101.342 56.4429L99.1441 56.4419ZM21.9171 56.5119V70.3219H24.3221V60.4949L28.5821 66.8849H28.6511L32.9791 60.4279V70.2529H35.3841V56.5099H32.8421L28.6501 62.9699L24.4591 56.5119H21.9171ZM77.0891 56.5119V70.2519H79.4931V64.4809H86.0891V70.2529H88.4941V56.5099H86.0891V62.2129H79.4931V56.5099L77.0891 56.5119ZM47.8201 58.4339C48.5071 58.4339 49.1261 58.5709 49.6751 58.8459C50.2085 59.1096 50.6958 59.4577 51.1181 59.8769C51.5301 60.3579 51.8741 60.8379 52.0801 61.4569C52.2861 62.0749 52.4231 62.6929 52.4231 63.3799V63.4499C52.4231 64.0669 52.2861 64.6859 52.0801 65.3039C51.8051 65.8539 51.5301 66.4039 51.1181 66.8159C50.6959 67.235 50.2086 67.5829 49.6751 67.8459C49.1251 68.1219 48.5071 68.2589 47.8201 68.2589C47.2021 68.2589 46.5141 68.1219 45.9641 67.8469C45.4308 67.5836 44.9438 67.2354 44.5221 66.8159C44.1101 66.3349 43.7671 65.8539 43.5611 65.2359C43.3541 64.6159 43.2161 63.9979 43.2161 63.3109V63.2439C43.2161 62.6249 43.3541 62.0059 43.5611 61.3869C43.8351 60.8369 44.1111 60.2889 44.5221 59.8769C44.9439 59.4579 45.4309 59.11 45.9641 58.8469C46.5141 58.5709 47.1341 58.4339 47.8201 58.4339ZM100.242 59.3269L102.578 64.8229H97.9061L100.242 59.3269ZM20.2001 74.5809V75.3359H107.8V74.5809H20.2001Z" fill="white"/>
</svg>
