<svg width="123" height="37" viewBox="0 0 123 37" fill="none" xmlns="http://www.w3.org/2000/svg">
<path fill-rule="evenodd" clip-rule="evenodd" d="M114.673 15.4568C114.562 15.4793 114.451 15.726 114.451 15.8605C114.429 16.7573 114.407 19.1341 114.407 20.7483C114.407 20.7932 114.473 20.8828 114.54 20.8828C114.872 20.9053 115.669 20.9277 116.356 20.9277C117.308 20.9277 117.862 20.7932 118.172 20.6588C118.969 20.2551 119.346 19.3806 119.346 18.4164C119.346 16.2416 117.84 15.4119 115.603 15.4119C115.448 15.3897 115.005 15.3897 114.673 15.4568ZM120.387 25.4793C120.387 23.2596 118.77 22.0263 115.847 22.0263C115.714 22.0263 114.784 22.0039 114.562 22.0488C114.496 22.0712 114.407 22.1161 114.407 22.1834C114.407 23.7753 114.385 26.309 114.451 27.2954C114.496 27.7214 114.806 28.3269 115.182 28.5062C115.581 28.7305 116.489 28.7752 117.109 28.7752C118.859 28.7752 120.387 27.7888 120.387 25.4793ZM110.155 14.2237C110.376 14.2237 111.041 14.2909 112.746 14.2909C114.363 14.2909 115.647 14.2462 117.22 14.2462C119.146 14.2462 121.804 14.9412 121.804 17.8559C121.804 19.291 120.807 20.4345 119.501 20.995C119.434 21.0175 119.434 21.0622 119.501 21.0846C121.361 21.5556 123 22.7215 123 24.9188C123 27.0713 121.671 28.4389 119.744 29.291C118.571 29.8066 117.109 29.986 115.625 29.986C114.496 29.986 111.462 29.8515 109.779 29.8964C109.601 29.8291 109.934 29.0219 110.089 28.8874C110.487 28.8649 110.797 28.8425 111.218 28.708C111.816 28.5511 111.882 28.3718 111.971 27.4525C112.015 26.6677 112.015 23.8873 112.015 21.9143C112.015 19.2012 112.038 17.3627 112.015 16.4659C111.993 15.7709 111.75 15.5466 111.262 15.4119C110.886 15.3448 110.266 15.255 109.756 15.1879C109.646 15.0757 110.022 14.3133 110.155 14.2237ZM97.3764 28.1699C97.9081 28.5958 98.9489 28.7752 99.8791 28.7752C101.075 28.7752 102.271 28.5511 103.423 27.4972C104.596 26.421 105.416 24.7619 105.416 22.1161C105.416 19.5824 104.463 17.5196 102.515 16.309C101.407 15.6138 99.9897 15.3224 98.3509 15.3224C97.8638 15.3224 97.3986 15.3448 97.1108 15.4793C97.0443 15.5242 96.8893 15.726 96.8893 15.838C96.8449 16.2865 96.8449 19.7393 96.8449 21.7574C96.8449 23.8426 96.8449 26.7573 96.8893 27.0936C96.8893 27.43 97.0443 27.9457 97.3764 28.1699ZM92.3492 14.2237C92.77 14.2237 94.3866 14.2909 95.1618 14.2909C96.5571 14.2909 97.5536 14.2237 100.189 14.2237C102.404 14.2237 104.264 14.8292 105.593 15.9725C107.209 17.3851 108.051 19.3359 108.051 21.7125C108.051 25.0981 106.523 27.0489 104.995 28.1699C103.467 29.3135 101.474 29.986 98.6389 29.986C97.1329 29.986 94.5418 29.9411 92.3935 29.9187H92.3713C92.2607 29.7171 92.5485 28.9323 92.7257 28.9098C93.3015 28.8425 93.4565 28.8201 93.7445 28.708C94.2095 28.5287 94.2982 28.282 94.3647 27.4525C94.431 25.9054 94.4088 24.0444 94.4088 21.9367C94.4088 20.4345 94.431 17.4972 94.3866 16.5555C94.3203 15.7709 93.9882 15.5691 93.3237 15.4344C92.9915 15.3673 92.5485 15.2775 91.9285 15.2103C91.8399 15.0532 92.2385 14.3582 92.3492 14.2237Z" fill="#696c74"/>
<path fill-rule="evenodd" clip-rule="evenodd" d="M65.5522 29.0443C64.9985 28.977 64.5998 28.8874 64.1125 28.6631C64.0462 28.6182 63.9353 28.3942 63.9353 28.3044C63.891 27.5196 63.891 25.2775 63.891 23.7753C63.891 22.5644 63.6919 21.5107 63.1823 20.7708C62.5843 19.9187 61.7207 19.4255 60.6134 19.4255C59.6389 19.4255 58.3323 20.0982 57.2471 21.0399C57.2249 21.0622 57.0478 21.2193 57.0699 20.9726C57.0699 20.7259 57.1143 20.2327 57.1365 19.8964C57.1586 19.5824 56.9815 19.4255 56.9815 19.4255C56.2726 19.7842 54.2795 20.2551 53.5487 20.3223C53.0172 20.4345 52.8844 20.9501 53.438 21.1295H53.4602C54.058 21.3089 54.4567 21.5107 54.7666 21.7125C54.9881 21.8918 54.966 22.1385 54.966 22.3404C54.9881 24.022 54.9881 26.6004 54.9218 28.013C54.8997 28.5736 54.7447 28.7752 54.346 28.8649L54.3901 28.8425C54.0802 28.9098 53.8365 28.977 53.46 29.0219C53.3272 29.1563 53.3272 29.874 53.46 30.0309C53.7037 30.0309 54.9881 29.9636 56.0513 29.9636C57.513 29.9636 58.2659 30.0309 58.6424 30.0309C58.7974 29.8515 58.8418 29.1788 58.7531 29.0219C58.3323 28.9994 58.0223 28.9547 57.7345 28.8649C57.3358 28.7752 57.2249 28.5736 57.2028 28.1026C57.1586 26.9142 57.1586 24.4031 57.1586 22.6991C57.1586 22.2281 57.2915 22.0039 57.4243 21.8694C57.9336 21.4211 58.7531 21.1071 59.4839 21.1071C60.1926 21.1071 60.6577 21.3313 61.0121 21.6229C61.4992 22.0263 61.6542 22.6093 61.7207 23.0354C61.8313 23.9995 61.7872 25.9054 61.7872 27.5645C61.7872 28.4613 61.7207 28.6856 61.3885 28.7976C61.2336 28.8649 60.8349 28.9547 60.3697 28.9994C60.2147 29.1563 60.2591 29.8515 60.3697 30.0085C61.0121 30.0085 61.765 29.9411 62.8724 29.9411C64.2453 29.9411 65.1313 30.0085 65.4856 30.0085C65.5963 29.874 65.6408 29.2237 65.5522 29.0443ZM71.6867 20.4794C70.5129 20.4794 69.7821 21.3987 69.7821 22.8336C69.7821 24.2909 70.4242 25.9725 72.2404 25.9725C72.5504 25.9725 73.1262 25.838 73.3918 25.5242C73.8127 25.1206 74.1007 24.3133 74.1007 23.4614C74.1007 21.6005 73.1925 20.4794 71.6867 20.4794ZM71.5315 30.3896C71.0887 30.3896 70.7785 30.5241 70.5794 30.6363C69.649 31.2415 69.2284 31.8245 69.2284 32.5197C69.2284 33.1698 69.4719 33.6855 70.0036 34.134C70.6457 34.6945 71.5315 34.9637 72.661 34.9637C74.92 34.9637 75.9166 33.7304 75.9166 32.5197C75.9166 31.6676 75.4958 31.1071 74.6322 30.7932C74.012 30.5241 72.8825 30.3896 71.5315 30.3896ZM71.6867 36.2192C70.3357 36.2192 69.3612 35.9276 68.5198 35.2775C67.7003 34.6496 67.3459 33.7079 67.3459 33.0578C67.3459 32.8785 67.3903 32.3851 67.789 31.9368C68.0324 31.6676 68.5639 31.152 69.8264 30.2776C69.8706 30.2552 69.8927 30.2327 69.8927 30.1878C69.8927 30.1429 69.8484 30.098 69.8042 30.0758C68.7632 29.6722 68.4533 29.0219 68.3646 28.6631V28.6182C68.3426 28.4838 68.2983 28.3493 68.4976 28.2146C68.6526 28.1026 68.8741 27.9681 69.1176 27.8112C69.4941 27.587 69.8927 27.3403 70.1364 27.1385C70.1807 27.0936 70.1807 27.0489 70.1807 27.004C70.1807 26.9591 70.1364 26.9142 70.0921 26.892C68.5419 26.3761 67.7668 25.2102 67.7668 23.4614C67.7668 22.3179 68.2761 21.2864 69.1841 20.6363C69.8042 20.1429 71.3544 19.5377 72.3732 19.5377H72.4397C73.4805 19.5599 74.0563 19.7842 74.8756 20.0758C75.3186 20.2327 75.7395 20.2998 76.3153 20.2998C77.1789 20.2998 77.5554 20.0309 77.8654 19.7171C77.8876 19.7617 77.9319 19.874 77.9541 20.1654C77.9763 20.457 77.8876 20.8828 77.6661 21.1968C77.4889 21.4433 77.0905 21.6229 76.6918 21.6229H76.5809C76.1823 21.578 76.0051 21.5331 76.0051 21.5331L75.9166 21.578C75.8945 21.6229 75.9166 21.6676 75.9388 21.7349L75.961 21.7798C76.0051 21.9816 76.0938 22.5868 76.0938 22.744C76.0938 24.5825 75.363 25.3895 74.5878 25.9949C73.8348 26.5555 72.9712 26.9142 71.9967 27.004C71.9745 27.004 71.8861 27.004 71.6867 27.0264C71.5759 27.0264 71.4209 27.0489 71.3987 27.0489H71.3765C71.1994 27.0936 70.7566 27.3178 70.7566 27.699C70.7566 28.0353 70.9559 28.4389 71.908 28.5062C72.1073 28.5287 72.3067 28.5287 72.5282 28.5511C73.7905 28.6407 75.363 28.7529 76.0938 28.9994C77.1124 29.3806 77.7548 30.2998 77.7548 31.3987C77.7548 33.0578 76.5809 34.605 74.6322 35.5689C73.6798 35.995 72.7275 36.2192 71.6867 36.2192ZM84.3102 20.5914C83.845 20.5914 83.4241 20.7034 83.1142 20.9277C82.2505 21.4658 81.8075 22.5422 81.8075 24.1115C81.8075 27.0489 83.2692 29.1116 85.351 29.1116C85.9711 29.1116 86.4583 28.9323 86.8791 28.5736C87.5212 28.0353 87.8536 26.9591 87.8536 25.4569C87.8536 22.5422 86.4139 20.5914 84.3102 20.5914ZM84.7088 30.1878C80.9439 30.1878 79.5929 27.3852 79.5929 24.7619C79.5929 22.9233 80.3237 21.5107 81.7854 20.5016C82.8264 19.8515 84.0665 19.4928 85.1738 19.4928C88.0527 19.4928 90.0682 21.578 90.0682 24.5825C90.0682 26.6228 89.2709 28.2371 87.7428 29.2237C87.0119 29.7169 85.7498 30.1878 84.7088 30.1878ZM45.2438 20.5914C44.7787 20.5914 44.358 20.7034 44.0478 20.9277C43.1842 21.4658 42.7412 22.5422 42.7412 24.1115C42.7412 27.0489 44.2028 29.1116 46.2846 29.1116C46.9048 29.1116 47.3919 28.9323 47.8128 28.5736C48.4549 28.0353 48.7873 26.9591 48.7873 25.4569C48.7873 22.5422 47.3698 20.5914 45.2438 20.5914ZM45.6425 30.1878C41.8776 30.1878 40.5266 27.3852 40.5266 24.7619C40.5266 22.9233 41.2574 21.5107 42.719 20.5016C43.76 19.8515 45.0002 19.4928 46.1075 19.4928C48.9866 19.4928 51.0019 21.578 51.0019 24.5825C51.0019 26.6228 50.2046 28.2371 48.6764 29.2237C47.9678 29.7169 46.7055 30.1878 45.6425 30.1878ZM20.3291 29.9636C20.2847 29.8964 20.2404 29.6946 20.2626 29.4479C20.2626 29.2686 20.3069 29.1563 20.3291 29.1116C20.7941 29.0443 21.0377 28.977 21.3034 28.9098C21.7464 28.7976 21.9235 28.5511 21.9457 27.9906C22.0122 26.6453 22.0122 24.0891 21.9901 22.3179V22.273C21.9901 22.0712 21.9901 21.8245 21.7464 21.6451C21.3921 21.4211 20.9712 21.2193 20.4176 21.0622C20.2182 20.995 20.0854 20.8828 20.1076 20.7483C20.1076 20.6139 20.2404 20.457 20.5284 20.4121C21.2592 20.3447 23.1637 19.874 23.9167 19.5377C23.961 19.5824 24.0275 19.7171 24.0275 19.8964L24.0054 20.1429C23.9832 20.3896 23.961 20.6812 23.961 20.9726C23.961 21.0622 24.0497 21.1295 24.1382 21.1295C24.1825 21.1295 24.2269 21.1071 24.2712 21.0846C25.6885 19.9635 26.973 19.5599 27.6373 19.5599C28.7226 19.5599 29.5641 20.0758 30.2064 21.152C30.2506 21.2193 30.2949 21.2415 30.3614 21.2415C30.4058 21.2415 30.4721 21.2193 30.4942 21.1744C31.8009 20.1654 33.1075 19.5599 33.9712 19.5599C36.0308 19.5599 37.249 21.1071 37.249 23.7304C37.249 24.4703 37.249 25.4344 37.2268 26.309C37.2268 27.0936 37.2046 27.8112 37.2046 28.3269C37.2046 28.4389 37.3596 28.7976 37.6033 28.8649C37.9133 29.0219 38.3341 29.0892 38.8878 29.1788H38.9099C38.9543 29.3357 38.8656 29.9187 38.7771 30.0309C38.6441 30.0309 38.4448 30.0309 38.2235 30.0085C37.8026 29.986 37.2046 29.9636 36.5403 29.9636C35.1672 29.9636 34.4585 29.986 33.7718 30.0309C33.7277 29.8515 33.7055 29.3135 33.7718 29.1788C34.1705 29.1116 34.3698 29.0443 34.6135 28.977C35.0565 28.8425 35.1672 28.6407 35.1893 28.0577C35.1893 27.6319 35.2778 23.9995 35.145 23.1249C35.0122 22.2281 34.3477 21.1744 32.886 21.1744C32.3324 21.1744 31.4687 21.3987 30.6271 22.0488C30.5829 22.0937 30.5386 22.2057 30.5386 22.273V22.2955C30.6271 22.7662 30.6271 23.3045 30.6271 24.134V25.5913C30.6271 26.6004 30.6049 27.5421 30.6271 28.2595C30.6271 28.7529 30.9151 28.8649 31.1587 28.9547C31.2916 28.977 31.38 28.9994 31.4909 29.0219C31.6902 29.0668 31.8896 29.1116 32.1995 29.1788C32.2439 29.2686 32.2439 29.5599 32.1774 29.8066C32.1552 29.9411 32.1109 30.0085 32.0889 30.0309C31.3359 30.0085 30.5608 29.986 29.4313 29.986C29.0991 29.986 28.5233 30.0085 28.0359 30.0085C27.6373 30.0085 27.2608 30.0309 27.0395 30.0309C27.0173 29.986 26.973 29.8291 26.973 29.5824C26.973 29.3806 27.0173 29.2237 27.0617 29.1788C27.1723 29.1563 27.2608 29.1341 27.3716 29.1341C27.6373 29.0892 27.8588 29.0443 28.0803 28.9994C28.4568 28.8874 28.5896 28.6856 28.6118 28.1924C28.6783 27.0713 28.7446 23.865 28.5896 23.0578C28.324 21.7574 27.5931 21.1071 26.4193 21.1071C25.7328 21.1071 24.869 21.4433 24.1603 21.9816C24.0497 22.0712 23.961 22.2955 23.961 22.4973V23.8201C23.961 25.4344 23.961 27.4525 23.9832 28.3269C24.0054 28.5958 24.0938 28.9098 24.6033 29.0219C24.714 29.0443 24.8912 29.0892 25.1127 29.1116L25.5113 29.1788C25.5557 29.3135 25.5335 29.8515 25.4448 30.0309C25.2233 30.0309 24.9577 30.0085 24.6475 30.0085C24.1825 29.986 23.5845 29.9636 22.9202 29.9636C22.145 29.9636 21.5914 29.986 21.1484 30.0085C20.8384 29.9636 20.5947 29.9636 20.3291 29.9636Z" fill="#696c74"/>
<path fill-rule="evenodd" clip-rule="evenodd" d="M8.67993 35.3448L7.77195 35.0308C7.77195 35.0308 7.88281 30.3447 6.22184 30.0085C5.11452 28.708 6.399 -25.1484 10.3852 29.8291C10.3852 29.8291 9.01229 30.5241 8.76861 31.7125C8.50277 32.8785 8.67993 35.3448 8.67993 35.3448Z" fill="white"/>
<path fill-rule="evenodd" clip-rule="evenodd" d="M8.67993 35.3448L7.77195 35.0308C7.77195 35.0308 7.88281 30.3447 6.22184 30.0085C5.11452 28.708 6.399 -25.1484 10.3852 29.8291C10.3852 29.8291 9.01229 30.5241 8.76861 31.7125C8.50277 32.8785 8.67993 35.3448 8.67993 35.3448Z" fill="#696c74"/>
<path fill-rule="evenodd" clip-rule="evenodd" d="M9.16728 30.8157C9.16728 30.8157 17.1178 25.5242 15.2575 14.5151C13.4637 6.51076 9.23359 3.88746 8.76861 2.87841C8.2593 2.16096 7.77195 0.905429 7.77195 0.905429L8.10431 23.1698C8.10431 23.1923 7.41763 29.986 9.16728 30.8157Z" fill="white"/>
<path fill-rule="evenodd" clip-rule="evenodd" d="M9.16728 30.8157C9.16728 30.8157 17.1178 25.5242 15.2575 14.5151C13.4637 6.51076 9.23359 3.88746 8.76861 2.87841C8.2593 2.16096 7.77195 0.905429 7.77195 0.905429L8.10431 23.1698C8.10431 23.1923 7.41763 29.986 9.16728 30.8157Z" fill="#9E9E9E"/>
<path fill-rule="evenodd" clip-rule="evenodd" d="M7.30698 31.1071C7.30698 31.1071 -0.156399 25.95 0.286609 16.8695C0.707238 7.78874 5.97816 3.32692 6.99679 2.51969C7.6613 1.80224 7.68347 1.53309 7.72782 0.815643C8.19279 1.82469 8.10431 15.9053 8.17062 17.5645C8.36995 23.9546 7.81629 29.8964 7.30698 31.1071Z" fill="white"/>
<path fill-rule="evenodd" clip-rule="evenodd" d="M7.30698 31.1071C7.30698 31.1071 -0.156399 25.95 0.286609 16.8695C0.707238 7.78874 5.97816 3.32692 6.99679 2.51969C7.6613 1.80224 7.68347 1.53309 7.72782 0.815643C8.19279 1.82469 8.10431 15.9053 8.17062 17.5645C8.36995 23.9546 7.81629 29.8964 7.30698 31.1071Z" fill="#696c74"/>
</svg>
