<svg width="80" height="31" viewBox="0 0 80 31" fill="none" xmlns="http://www.w3.org/2000/svg">
<path fill-rule="evenodd" clip-rule="evenodd" d="M53.1141 0.325171C53.2386 0.254036 53.4164 0.254036 53.5587 0.325171L58.0579 2.83266C58.3425 2.99271 58.5203 3.29503 58.5203 3.63292V25.3111C58.5203 25.6312 58.3425 25.9335 58.0579 26.0936L50.5177 30.4506C50.2332 30.6106 49.8953 30.6106 49.6107 30.4506L42.0705 26.0936C41.786 25.9335 41.6081 25.6312 41.6081 25.3111V16.6149C41.6081 16.2948 41.786 15.9925 42.0705 15.8325L49.6107 11.4755C49.8953 11.3154 50.2332 11.3154 50.5177 11.4755L52.4028 12.5603C52.5095 12.6136 52.6162 12.6136 52.7229 12.5603C52.8296 12.4891 52.8829 12.3824 52.8829 12.2757V0.71641C52.8829 0.556358 52.9718 0.414089 53.1141 0.325171ZM50.1797 24.1374L52.7584 22.6436C52.8295 22.608 52.8651 22.5369 52.8651 22.448V19.4603C52.8651 19.3892 52.8295 19.3003 52.7584 19.2647L50.1797 17.7709C50.1086 17.7353 50.0197 17.7353 49.9486 17.7709L47.3699 19.2647C47.2988 19.3003 47.2632 19.3714 47.2632 19.4603V22.448C47.2632 22.5191 47.2988 22.608 47.3699 22.6436L49.9486 24.1374C50.0197 24.173 50.1086 24.173 50.1797 24.1374Z" fill="#696c74"/>
<path d="M17.3158 16.3838C17.3158 16.0637 17.138 15.7613 16.8535 15.6013L9.31321 11.2621C9.18873 11.1909 9.04646 11.1554 8.90419 11.1376H8.83306C8.69079 11.1376 8.54852 11.1909 8.42403 11.2621L0.883791 15.6013C0.599253 15.7613 0.421417 16.0637 0.421417 16.3838L0.439201 28.0498C0.439201 28.2098 0.528119 28.3699 0.670388 28.441C0.812656 28.53 0.990492 28.53 1.11498 28.441L5.59644 25.8802C5.88098 25.7201 6.05882 25.4178 6.05882 25.0977V19.6382C6.05882 19.3181 6.23665 19.0157 6.52119 18.8557L8.42403 17.7531C8.5663 17.6642 8.72635 17.6286 8.88641 17.6286C9.04646 17.6286 9.20651 17.6642 9.331 17.7531L11.2338 18.8557C11.5184 19.0157 11.6962 19.3181 11.6962 19.6382V25.0977C11.6962 25.4178 11.8741 25.7201 12.1586 25.8802L16.6401 28.441C16.7823 28.53 16.9602 28.53 17.1024 28.441C17.2447 28.3699 17.3336 28.2098 17.3336 28.0498L17.3158 16.3838Z" fill="#696c74"/>
<path d="M74.17 22.0034L78.6514 19.3892C78.936 19.2291 79.096 18.9268 79.096 18.6067V16.4905C79.096 16.1704 78.9182 15.868 78.6514 15.708L71.1645 11.3688C70.88 11.2087 70.5421 11.2087 70.2576 11.3688L62.7173 15.7258C62.4328 15.8858 62.255 16.1881 62.255 16.5082V25.2044C62.255 25.5245 62.4328 25.8268 62.7173 25.9869L70.2042 30.255C70.4888 30.415 70.8266 30.415 71.0934 30.255L75.6282 27.7297C75.7705 27.6586 75.8594 27.4985 75.8594 27.3385C75.8594 27.1784 75.7705 27.0183 75.6282 26.9472L68.0524 22.5902C67.9101 22.5013 67.8212 22.359 67.8212 22.199V19.4781C67.8212 19.318 67.9101 19.158 68.0524 19.0869L70.4176 17.7353C70.5599 17.6464 70.7377 17.6464 70.88 17.7353L73.2452 19.0869C73.3875 19.1758 73.4764 19.318 73.4764 19.4781V21.6121C73.4764 21.7722 73.5653 21.9322 73.7076 22.0034C73.8499 22.0923 74.0277 22.0923 74.17 22.0034Z" fill="#696c74"/>
<path d="M70.7733 18.9802C70.7199 18.9446 70.6488 18.9446 70.5954 18.9802L69.155 19.816C69.1016 19.8515 69.0661 19.9049 69.0661 19.976V21.6477C69.0661 21.7188 69.1016 21.7722 69.155 21.8077L70.5954 22.6436C70.6488 22.6791 70.7199 22.6791 70.7733 22.6436L72.2137 21.8077C72.2671 21.7722 72.3027 21.7188 72.3027 21.6477V19.976C72.3027 19.9049 72.2671 19.8515 72.2137 19.816L70.7733 18.9802Z" fill="#696c74"/>
<path d="M29.6703 11.3064C29.7577 11.3261 29.8432 11.3587 29.9244 11.4043L33.6413 13.5497L37.4292 15.7258C37.5075 15.7698 37.579 15.8246 37.6416 15.8876L37.6426 15.8858C37.717 15.9602 37.7799 16.05 37.8259 16.1481C37.8794 16.2604 37.9093 16.383 37.9093 16.5082V25.1688L37.9093 25.1741C37.9089 25.2412 37.9007 25.3075 37.8853 25.3718L37.8915 25.3822C37.8887 25.3913 37.8858 25.4003 37.8827 25.4092L38.0693 25.7201V25.8268L29.7466 30.6462L29.6166 30.4025C29.4133 30.4393 29.2021 30.3982 29.0175 30.2905L21.4951 25.9691C21.4062 25.9158 21.3172 25.8446 21.2461 25.7557L21.251 25.7474C21.2059 25.6963 21.1656 25.6407 21.1316 25.5818C21.0578 25.4567 21.0149 25.3171 21.0149 25.1688V16.5082C21.0149 16.2281 21.1646 15.9617 21.3927 15.7922C21.4253 15.768 21.4594 15.7458 21.495 15.7258L28.9997 11.4043C29.143 11.3132 29.3053 11.2792 29.4658 11.2816C29.5378 11.2806 29.6084 11.2865 29.6755 11.2976L29.6703 11.3064Z" fill="#696c74"/>
<path d="M28.6619 9.87496L28.7686 9.8216L28.8041 9.87496H28.6619Z" fill="#696c74"/>
<path d="M38.0871 25.7201L38.1404 25.8091L38.0871 25.8446V25.7201Z" fill="#696c74"/>
</svg>
