<svg width="512" height="512" viewBox="0 0 512 512" fill="none" xmlns="http://www.w3.org/2000/svg">
<g clip-path="url(#clip0_108_81)">
<g clip-path="url(#clip1_108_81)">
<path fill-rule="evenodd" clip-rule="evenodd" d="M218.69 160.404C213.615 159.697 209.018 160.351 206.692 162.111C205.383 163.102 204.979 164.25 204.87 165.04C204.578 167.133 206.045 169.447 206.945 170.64C209.494 174.018 213.218 176.341 216.904 176.853C217.438 176.926 217.969 176.962 218.497 176.962C224.645 176.962 230.232 172.177 230.725 168.644C231.341 164.22 224.918 161.27 218.69 160.404" fill="#3E3F40"/>
<path fill-rule="evenodd" clip-rule="evenodd" d="M386.842 160.544H386.841C386.357 157.076 380.185 156.087 374.329 156.901C368.481 157.716 362.81 160.355 363.284 163.831C363.664 166.534 368.543 171.149 374.321 171.147C374.808 171.147 375.301 171.115 375.797 171.046C379.653 170.511 382.483 168.063 383.826 166.651C385.874 164.501 387.058 162.102 386.842 160.544" fill="#3E3F40"/>
<mask id="path-3-inside-1_108_81" fill="white">
<path fill-rule="evenodd" clip-rule="evenodd" d="M483.322 309.078C481.174 302.584 474.262 300.493 462.777 302.866C428.676 309.904 416.465 305.028 412.454 302.076C438.96 261.695 460.765 212.887 472.528 167.346C478.101 145.774 481.179 125.741 481.43 109.413C481.707 91.4879 478.656 78.3186 472.36 70.2732C446.976 37.8388 409.724 20.4413 364.628 19.9632C333.627 19.615 307.434 27.5495 302.356 29.78C291.663 27.1206 280.005 25.488 267.315 25.2797C244.041 24.9035 223.925 30.4753 207.269 41.8318C200.034 39.1399 181.337 32.7215 158.473 29.0387C118.941 22.673 87.529 27.4957 65.1118 43.377C38.3634 62.3275 26.0148 96.202 28.4077 144.058C29.2128 160.159 38.3858 209.689 52.864 257.124C71.9209 319.555 92.635 354.898 114.432 362.168C116.983 363.019 119.925 363.614 123.168 363.614C131.119 363.614 140.867 360.03 151.009 347.837C167.856 327.57 183.585 310.587 189.383 304.416C197.951 309.016 207.363 311.583 216.991 311.841C217.008 312.093 217.034 312.345 217.056 312.596C215.125 314.887 213.54 316.894 212.19 318.609C205.52 327.076 204.131 328.839 182.659 333.26C176.552 334.52 160.328 337.864 160.092 349.235C159.833 361.658 179.266 366.876 181.481 367.429C189.197 369.361 196.63 370.314 203.719 370.314C220.961 370.313 236.132 364.647 248.258 353.683C247.884 397.975 249.732 441.619 255.049 454.917C259.404 465.802 270.045 492.407 303.656 492.405C308.586 492.405 314.016 491.832 319.988 490.552C355.065 483.03 370.296 467.528 376.19 433.349C379.343 415.082 384.755 371.462 387.299 348.065C392.67 349.74 399.586 350.507 407.061 350.506C422.652 350.506 440.642 347.193 451.925 341.956C464.598 336.071 487.47 321.626 483.322 309.078V309.078V309.078ZM399.788 150.971C399.672 157.879 398.721 164.149 397.713 170.695C396.629 177.735 395.507 185.013 395.225 193.849C394.946 202.448 396.02 211.388 397.059 220.032C399.158 237.493 401.311 255.471 392.975 273.21C391.679 270.909 390.428 268.398 389.282 265.618C388.246 263.106 385.996 259.072 382.882 253.488C370.762 231.754 342.381 180.857 356.91 160.088C361.237 153.905 372.219 147.55 399.788 150.971V150.971V150.971ZM366.372 33.951C406.777 34.8435 438.737 49.9589 461.367 78.8751C478.723 101.055 459.612 201.977 404.284 289.043C403.738 288.349 403.181 287.648 402.606 286.929C402.376 286.641 402.142 286.349 401.906 286.053C416.203 262.441 413.407 239.08 410.918 218.367C409.896 209.867 408.931 201.838 409.176 194.298C409.43 186.303 410.487 179.449 411.509 172.82C412.766 164.651 414.044 156.199 413.691 146.234C413.954 145.19 414.06 143.955 413.923 142.489C413.022 132.933 402.114 104.338 379.878 78.453C367.717 64.2972 349.979 48.4539 325.761 37.7682C336.178 35.6094 350.423 33.5961 366.372 33.951V33.951V33.951ZM140.277 338.913C129.103 352.348 121.386 349.773 118.848 348.928C102.313 343.412 83.1284 308.466 66.2136 253.049C51.5774 205.098 43.0237 156.881 42.3474 143.36C40.2098 100.599 50.5753 70.7973 73.1571 54.7827C109.907 28.7207 170.328 44.3198 194.607 52.2319C194.257 52.5757 193.894 52.8982 193.548 53.2475C153.709 93.4833 154.654 162.226 154.752 166.428C154.748 168.049 154.884 170.345 155.071 173.502C155.756 185.064 157.031 206.583 153.624 230.953C150.456 253.599 157.437 275.764 172.773 291.765C174.361 293.421 176.018 294.976 177.73 296.44C170.903 303.751 156.067 319.916 140.277 338.913V338.913V338.913ZM182.85 282.107C170.49 269.211 164.876 251.272 167.447 232.886C171.046 207.142 169.717 184.721 169.004 172.676C168.904 170.991 168.816 169.514 168.763 168.348C174.583 163.188 201.555 148.736 220.788 153.143C229.567 155.154 234.914 161.13 237.138 171.412C248.647 224.636 238.662 246.821 230.639 264.647C228.985 268.32 227.423 271.791 226.088 275.383L225.055 278.159C222.437 285.179 220.001 291.705 218.492 297.902C205.353 297.862 192.57 292.25 182.85 282.107V282.107V282.107ZM184.867 353.888C181.031 352.93 177.58 351.265 175.555 349.884C177.246 349.088 180.256 348.006 185.475 346.931C210.735 341.73 214.635 338.061 223.154 327.244C225.108 324.765 227.322 321.953 230.388 318.529C230.389 318.527 230.39 318.526 230.391 318.525C234.959 313.412 237.047 314.279 240.835 315.85C243.906 317.12 246.895 320.968 248.108 325.203C248.681 327.203 249.326 331 247.218 333.952C229.422 358.869 203.491 358.549 184.867 353.888V353.888V353.888ZM317.062 476.904C286.16 483.525 275.219 467.758 268.009 449.734C263.355 438.096 261.069 385.622 262.691 327.674C262.713 326.903 262.603 326.158 262.39 325.458C262.205 324.107 261.921 322.739 261.527 321.363C259.113 312.931 253.233 305.878 246.179 302.955C243.376 301.793 238.231 299.663 232.049 301.244C233.368 295.812 235.654 289.679 238.132 283.037L239.172 280.242C240.344 277.092 241.812 273.829 243.366 270.376C251.762 251.723 263.26 226.176 250.781 168.461C246.106 146.845 230.497 136.289 206.833 138.74C192.646 140.208 179.668 145.932 173.195 149.214C171.803 149.919 170.53 150.6 169.341 151.264C171.147 129.483 177.974 88.7792 203.509 63.0263C219.585 46.8124 240.996 38.8051 267.084 39.2362C318.486 40.0783 351.448 66.4571 370.05 88.4388C386.079 107.381 394.759 126.462 398.224 136.752C372.173 134.104 354.455 139.247 345.473 152.087C325.933 180.018 356.163 234.232 370.692 260.286C373.356 265.061 375.656 269.188 376.379 270.941C381.11 282.407 387.235 290.062 391.707 295.651C393.078 297.363 394.408 299.023 395.419 300.473C387.529 302.749 373.357 308.004 374.648 334.274C373.606 347.457 366.198 409.172 362.436 430.977C357.469 459.783 346.868 470.514 317.062 476.904V476.904V476.904ZM446.047 329.297C437.979 333.042 424.477 335.851 411.651 336.454C397.484 337.118 390.273 334.867 388.576 333.483C387.779 317.113 393.874 315.402 400.322 313.591C401.336 313.305 402.324 313.029 403.278 312.695C403.872 313.178 404.521 313.657 405.232 314.126C416.619 321.642 436.929 322.453 465.6 316.535C465.705 316.512 465.81 316.492 465.915 316.471C462.048 320.087 455.43 324.94 446.047 329.297V329.297V329.297Z"/>
</mask>
<path d="M462.777 302.866L464.394 310.701L464.396 310.701L462.777 302.866ZM412.454 302.076L405.766 297.686L401.605 304.023L407.711 308.518L412.454 302.076ZM472.528 167.346L464.782 165.345L464.782 165.345L472.528 167.346ZM481.43 109.413L473.431 109.289L473.431 109.29L481.43 109.413ZM472.36 70.2732L478.66 65.3428L478.66 65.3428L472.36 70.2732ZM364.628 19.9632L364.538 27.9627L364.543 27.9628L364.628 19.9632ZM302.356 29.78L300.425 37.5435L303.074 38.2023L305.573 37.1045L302.356 29.78ZM267.315 25.2797L267.446 17.2808L267.444 17.2808L267.315 25.2797ZM207.269 41.8318L204.479 49.3296L208.357 50.7725L211.775 48.4416L207.269 41.8318ZM158.473 29.0387L159.745 21.1405L159.744 21.1405L158.473 29.0387ZM65.1118 43.377L60.4872 36.8492L60.487 36.8492L65.1118 43.377ZM28.4077 144.058L36.3977 143.658L36.3977 143.658L28.4077 144.058ZM52.864 257.124L45.2125 259.459L45.2125 259.459L52.864 257.124ZM114.432 362.168L116.964 354.579L116.963 354.579L114.432 362.168ZM151.009 347.837L157.16 352.953L157.162 352.951L151.009 347.837ZM189.383 304.416L193.167 297.367L187.757 294.463L183.553 298.938L189.383 304.416ZM216.991 311.841L224.974 311.309L224.489 304.039L217.205 303.844L216.991 311.841ZM217.056 312.596L223.173 317.752L225.321 315.204L225.025 311.884L217.056 312.596ZM212.19 318.609L218.474 323.559L218.474 323.559L212.19 318.609ZM182.659 333.26L181.045 325.425L181.043 325.425L182.659 333.26ZM160.092 349.235L168.09 349.401L168.09 349.401L160.092 349.235ZM181.481 367.429L183.424 359.669L183.419 359.668L181.481 367.429ZM203.719 370.314L203.719 378.314L203.72 378.314L203.719 370.314ZM248.258 353.683L256.258 353.751L256.412 335.526L242.893 347.749L248.258 353.683ZM255.049 454.917L247.621 457.887L247.622 457.889L255.049 454.917ZM303.656 492.405L303.656 484.405L303.656 484.405L303.656 492.405ZM319.988 490.552L321.664 498.374L321.665 498.374L319.988 490.552ZM376.19 433.349L368.306 431.988L368.306 431.989L376.19 433.349ZM387.299 348.065L389.68 340.427L380.397 337.532L379.346 347.2L387.299 348.065ZM407.061 350.506L407.061 342.506L407.06 342.506L407.061 350.506ZM451.925 341.956L455.293 349.213L455.294 349.212L451.925 341.956ZM397.713 170.695L405.62 171.912L405.62 171.912L397.713 170.695ZM395.225 193.849L403.221 194.108L403.221 194.104L395.225 193.849ZM397.059 220.032L405.002 219.078L405.002 219.077L397.059 220.032ZM392.975 273.21L386.004 277.135L393.616 290.655L400.215 276.612L392.975 273.21ZM389.282 265.618L381.886 268.668L381.886 268.668L389.282 265.618ZM382.882 253.488L389.869 249.591L389.869 249.591L382.882 253.488ZM356.91 160.088L350.355 155.501L350.355 155.502L356.91 160.088ZM461.367 78.8751L467.668 73.945L467.667 73.9446L461.367 78.8751ZM404.284 289.043L397.998 293.991L404.981 302.863L411.036 293.334L404.284 289.043ZM402.606 286.929L396.351 291.918L396.356 291.923L396.36 291.929L402.606 286.929ZM401.906 286.053L395.062 281.91L392.17 286.686L395.656 291.048L401.906 286.053ZM410.918 218.367L418.861 217.413L418.861 217.412L410.918 218.367ZM409.176 194.298L417.172 194.558L417.172 194.552L409.176 194.298ZM411.509 172.82L419.415 174.038L419.415 174.037L411.509 172.82ZM413.691 146.234L405.933 144.28L405.656 145.382L405.696 146.517L413.691 146.234ZM413.923 142.489L421.888 141.74L421.887 141.738L413.923 142.489ZM379.878 78.453L385.947 73.2401L385.946 73.2397L379.878 78.453ZM325.761 37.7682L324.137 29.9347L299.678 35.0038L322.531 45.0874L325.761 37.7682ZM118.848 348.928L116.317 356.517L116.319 356.518L118.848 348.928ZM66.2136 253.049L73.8651 250.713L73.8651 250.713L66.2136 253.049ZM42.3474 143.36L34.3574 143.759L34.3574 143.76L42.3474 143.36ZM73.1571 54.7827L68.5293 48.2571L68.5293 48.2571L73.1571 54.7827ZM194.607 52.2319L200.218 57.9343L209.599 48.7036L197.085 44.6257L194.607 52.2319ZM193.548 53.2475L187.864 47.6181L187.864 47.6188L193.548 53.2475ZM154.752 166.428L162.752 166.444L162.752 166.343L162.749 166.242L154.752 166.428ZM155.071 173.502L147.085 173.975L147.085 173.976L155.071 173.502ZM153.624 230.953L161.547 232.061L161.547 232.061L153.624 230.953ZM172.773 291.765L166.997 297.301L166.998 297.302L172.773 291.765ZM177.73 296.44L183.577 301.9L189.282 295.79L182.928 290.359L177.73 296.44ZM167.447 232.886L175.37 233.993L175.37 233.993L167.447 232.886ZM169.004 172.676L161.018 173.148L161.018 173.149L169.004 172.676ZM168.763 168.348L163.456 162.362L160.599 164.895L160.771 168.709L168.763 168.348ZM220.788 153.143L219.002 160.941L219.002 160.941L220.788 153.143ZM237.138 171.412L244.957 169.721L244.957 169.72L237.138 171.412ZM230.639 264.647L237.933 267.932L237.934 267.93L230.639 264.647ZM226.088 275.383L233.585 278.175L233.587 278.17L226.088 275.383ZM225.055 278.159L232.55 280.955L232.552 280.95L225.055 278.159ZM218.492 297.902L218.467 305.902L224.773 305.922L226.265 299.795L218.492 297.902ZM175.555 349.884L172.147 342.646L159.486 348.608L171.048 356.493L175.555 349.884ZM185.475 346.931L183.862 339.096L183.861 339.096L185.475 346.931ZM223.154 327.244L216.871 322.292L216.87 322.294L223.154 327.244ZM230.388 318.529L236.348 323.865L237.064 323.066L237.543 322.107L230.388 318.529ZM230.391 318.525L236.053 324.177L236.21 324.02L236.357 323.854L230.391 318.525ZM240.835 315.85L237.771 323.239L237.775 323.241L240.835 315.85ZM248.108 325.203L240.417 327.405L240.418 327.407L248.108 325.203ZM247.218 333.952L253.728 338.602L253.728 338.601L247.218 333.952ZM268.009 449.734L260.581 452.704L260.581 452.705L268.009 449.734ZM262.691 327.674L270.688 327.898L270.688 327.895L262.691 327.674ZM262.39 325.458L254.464 326.542L254.55 327.174L254.736 327.785L262.39 325.458ZM261.527 321.363L253.836 323.565L253.836 323.566L261.527 321.363ZM246.179 302.955L249.242 295.564L249.241 295.564L246.179 302.955ZM232.049 301.244L224.275 299.356L221.133 312.293L234.031 308.994L232.049 301.244ZM238.132 283.037L245.628 285.833L245.63 285.827L238.132 283.037ZM239.172 280.242L246.67 283.032L246.671 283.03L239.172 280.242ZM243.366 270.376L236.071 267.092L236.071 267.092L243.366 270.376ZM250.781 168.461L258.6 166.77L258.6 166.77L250.781 168.461ZM206.833 138.74L207.656 146.697L207.657 146.697L206.833 138.74ZM173.195 149.214L176.812 156.35L176.813 156.349L173.195 149.214ZM169.341 151.264L161.368 150.603L160.127 165.572L173.241 158.249L169.341 151.264ZM203.509 63.0263L209.189 68.659L209.19 68.6589L203.509 63.0263ZM267.084 39.2362L266.952 47.2351L266.953 47.2351L267.084 39.2362ZM370.05 88.4388L376.157 83.2711L376.157 83.2709L370.05 88.4388ZM398.224 136.752L397.415 144.711L409.767 145.967L405.806 134.2L398.224 136.752ZM345.473 152.087L338.918 147.501L338.918 147.501L345.473 152.087ZM370.692 260.286L363.705 264.182L363.705 264.183L370.692 260.286ZM376.379 270.941L368.983 273.992L368.984 273.992L376.379 270.941ZM391.707 295.651L385.461 300.649L385.462 300.65L391.707 295.651ZM395.419 300.473L397.636 308.16L408.373 305.064L401.981 295.897L395.419 300.473ZM374.648 334.274L382.623 334.904L382.663 334.393L382.638 333.881L374.648 334.274ZM362.436 430.977L354.552 429.617L354.552 429.618L362.436 430.977ZM411.651 336.454L412.025 344.445L412.026 344.445L411.651 336.454ZM388.576 333.483L380.586 333.872L380.759 337.43L383.519 339.682L388.576 333.483ZM400.322 313.591L402.485 321.293L402.492 321.291L400.322 313.591ZM403.278 312.695L408.326 306.488L404.857 303.668L400.637 305.144L403.278 312.695ZM405.232 314.126L409.639 307.45L409.638 307.449L405.232 314.126ZM465.6 316.535L467.217 324.37L467.241 324.365L467.265 324.36L465.6 316.535ZM465.915 316.471L471.379 322.314L492.074 302.962L464.313 308.633L465.915 316.471ZM490.918 306.567C488.977 300.699 484.638 296.735 478.867 294.99C473.596 293.396 467.475 293.727 461.159 295.032L464.396 310.701C469.565 309.633 472.642 309.823 474.236 310.305C474.94 310.518 475.217 310.745 475.313 310.836C475.397 310.916 475.563 311.097 475.727 311.59L490.918 306.567ZM461.16 295.031C427.652 301.947 418.372 296.498 417.196 295.633L407.711 308.518C414.557 313.558 429.701 317.861 464.394 310.701L461.16 295.031ZM419.141 306.466C446.113 265.378 468.284 215.766 480.274 169.347L464.782 165.345C453.246 210.008 431.808 258.013 405.766 297.686L419.141 306.466ZM480.274 169.347C485.952 147.367 489.165 126.68 489.429 109.536L473.431 109.29C473.192 124.802 470.25 144.181 464.782 165.345L480.274 169.347ZM489.429 109.537C489.716 91.0221 486.664 75.5707 478.66 65.3428L466.06 75.2037C470.648 81.0665 473.699 91.9536 473.431 109.289L489.429 109.537ZM478.66 65.3428C451.623 30.7959 411.975 12.4648 364.713 11.9637L364.543 27.9628C407.472 28.4179 442.33 44.8816 466.06 75.2037L478.66 65.3428ZM364.718 11.9637C332.615 11.6031 305.291 19.7529 299.139 22.4554L305.573 37.1045C309.577 35.346 334.639 27.6268 364.538 27.9627L364.718 11.9637ZM304.287 22.0165C293.01 19.2119 280.748 17.4991 267.446 17.2808L267.184 33.2787C279.261 33.4769 290.316 35.0293 300.425 37.5435L304.287 22.0165ZM267.444 17.2808C242.771 16.8819 220.978 22.802 202.762 35.2219L211.775 48.4416C226.872 38.1487 245.311 32.9251 267.186 33.2787L267.444 17.2808ZM210.058 34.334C202.546 31.5386 183.311 24.9365 159.745 21.1405L157.2 36.9369C179.362 40.5066 197.522 46.7412 204.479 49.3296L210.058 34.334ZM159.744 21.1405C119.088 14.5935 85.2619 19.2977 60.4872 36.8492L69.7364 49.9049C89.7962 35.6937 118.795 30.7524 157.201 36.937L159.744 21.1405ZM60.487 36.8492C30.5838 58.0348 17.9563 95.2307 20.4177 144.457L36.3977 143.658C34.0734 97.1733 46.1429 66.6202 69.7365 49.9048L60.487 36.8492ZM20.4177 144.457C21.2701 161.506 30.6511 211.752 45.2125 259.459L60.5155 254.788C46.1204 207.626 37.1555 158.813 36.3977 143.658L20.4177 144.457ZM45.2125 259.459C54.8286 290.962 64.9876 316.068 75.7186 334.377C86.2974 352.426 98.1923 365.185 111.901 369.757L116.963 354.579C108.875 351.881 99.5141 343.334 89.5224 326.286C79.6829 309.498 69.9563 285.716 60.5155 254.788L45.2125 259.459ZM111.9 369.756C115.138 370.837 118.939 371.614 123.168 371.614V355.614C120.912 355.614 118.827 355.201 116.964 354.579L111.9 369.756ZM123.168 371.614C133.917 371.614 145.788 366.623 157.16 352.953L144.859 342.721C135.945 353.437 128.322 355.614 123.168 355.614V371.614ZM157.162 352.951C173.865 332.856 189.473 316.003 195.213 309.894L183.553 298.938C177.697 305.17 161.847 322.284 144.857 342.723L157.162 352.951ZM185.599 311.464C195.229 316.634 205.858 319.546 216.777 319.838L217.205 303.844C208.867 303.621 200.674 301.397 193.167 297.367L185.599 311.464ZM209.009 312.373C209.034 312.744 209.078 313.193 209.088 313.307L225.025 311.884C224.99 311.497 224.983 311.441 224.974 311.309L209.009 312.373ZM210.94 307.439C208.915 309.84 207.26 311.939 205.906 313.658L218.474 323.559C219.821 321.849 221.334 319.933 223.173 317.752L210.94 307.439ZM205.906 313.658C202.453 318.04 201.388 319.237 199.224 320.386C196.536 321.813 191.958 323.178 181.045 325.425L184.273 341.096C194.833 338.921 201.685 337.194 206.726 334.518C212.292 331.563 215.256 327.644 218.474 323.559L205.906 313.658ZM181.043 325.425C178.081 326.036 171.516 327.353 165.608 330.295C159.859 333.157 152.306 338.853 152.093 349.068L168.09 349.401C168.114 348.245 168.79 346.584 172.74 344.617C176.53 342.73 181.13 341.744 184.275 341.095L181.043 325.425ZM152.093 349.068C151.866 359.973 160.274 366.508 165.879 369.723C171.937 373.198 178.191 374.853 179.543 375.191L183.419 359.668C182.557 359.452 177.986 358.222 173.839 355.844C169.238 353.205 168.058 350.92 168.09 349.401L152.093 349.068ZM179.538 375.19C187.826 377.265 195.912 378.314 203.719 378.314V362.314C197.348 362.314 190.568 361.457 183.424 359.669L179.538 375.19ZM203.72 378.314C222.826 378.313 239.942 371.988 253.623 359.618L242.893 347.749C232.323 357.306 219.096 362.313 203.719 362.314L203.72 378.314ZM240.258 353.616C240.07 375.871 240.439 398.048 241.533 416.399C242.08 425.569 242.813 433.877 243.767 440.808C244.696 447.567 245.908 453.605 247.621 457.887L262.477 451.947C261.531 449.58 260.518 445.176 259.617 438.628C258.74 432.251 258.038 424.386 257.505 415.447C256.44 397.578 256.072 375.788 256.258 353.751L240.258 353.616ZM247.622 457.889C249.795 463.322 253.995 473.966 262.507 483.174C271.276 492.66 284.406 500.406 303.657 500.405L303.656 484.405C289.295 484.406 280.299 478.851 274.256 472.313C267.956 465.498 264.658 457.397 262.477 451.946L247.622 457.889ZM303.656 500.405C309.207 500.405 315.2 499.759 321.664 498.374L318.311 482.729C312.831 483.904 307.966 484.405 303.656 484.405V500.405ZM321.665 498.374C339.992 494.444 354.28 488.199 364.739 477.554C375.23 466.876 380.973 452.687 384.073 434.708L368.306 431.989C365.513 448.189 360.694 458.841 353.326 466.34C345.926 473.871 335.06 479.138 318.31 482.73L321.665 498.374ZM384.073 434.709C387.272 416.175 392.706 372.338 395.252 348.929L379.346 347.2C376.803 370.585 371.413 413.989 368.306 431.988L384.073 434.709ZM384.917 355.702C391.35 357.708 399.152 358.507 407.062 358.506L407.06 342.506C400.019 342.507 393.99 341.771 389.68 340.427L384.917 355.702ZM407.061 358.506C423.456 358.506 442.671 355.071 455.293 349.213L448.556 334.7C438.613 339.316 421.848 342.506 407.061 342.506V358.506ZM455.294 349.212C462.06 346.07 471.658 340.612 479.189 334.045C482.938 330.776 486.572 326.892 488.964 322.525C491.398 318.084 492.871 312.478 490.918 306.568L475.726 311.589C475.847 311.953 476.017 312.858 474.932 314.838C473.806 316.893 471.707 319.341 468.673 321.986C462.637 327.25 454.462 331.957 448.555 334.701L455.294 349.212ZM391.789 150.836C391.683 157.125 390.821 162.887 389.807 169.478L405.62 171.912C406.621 165.411 407.66 158.632 407.787 151.106L391.789 150.836ZM389.807 169.478C388.724 176.507 387.529 184.219 387.229 193.594L403.221 194.104C403.486 185.807 404.535 178.963 405.62 171.912L389.807 169.478ZM387.229 193.59C386.927 202.904 388.092 212.46 389.117 220.987L405.002 219.077C403.949 210.316 402.965 201.991 403.221 194.108L387.229 193.59ZM389.117 220.987C391.252 238.754 392.953 254.447 385.734 269.807L400.215 276.612C409.669 256.494 407.064 236.233 405.002 219.078L389.117 220.987ZM399.946 269.285C398.792 267.237 397.688 265.018 396.677 262.568L381.886 268.668C383.169 271.778 384.566 274.581 386.004 277.135L399.946 269.285ZM396.677 262.568C395.413 259.502 392.845 254.928 389.869 249.591L375.895 257.384C379.148 263.216 381.079 266.711 381.886 268.668L396.677 262.568ZM389.869 249.591C383.775 238.663 373.943 221.003 367.389 203.606C364.109 194.898 361.803 186.642 361.094 179.587C360.372 172.401 361.417 167.602 363.465 164.673L350.355 155.502C345.139 162.958 344.283 172.31 345.175 181.187C346.08 190.196 348.902 199.916 352.416 209.246C359.452 227.923 369.869 246.578 375.895 257.384L389.869 249.591ZM363.465 164.674C365.22 162.166 372.269 155.618 398.803 158.91L400.773 143.032C372.169 139.482 357.253 145.643 350.355 155.501L363.465 164.674ZM366.195 41.9491C404.476 42.7946 434.076 56.9837 455.067 83.8055L467.667 73.9446C443.398 42.934 409.077 26.8923 366.548 25.953L366.195 41.9491ZM455.067 83.8052C456.179 85.2265 457.429 87.8904 458.328 92.3014C459.21 96.6235 459.653 102.116 459.552 108.704C459.348 121.875 456.978 138.671 452.312 157.724C442.984 195.807 424.706 241.991 397.532 284.752L411.036 293.334C439.19 249.03 458.131 201.22 467.852 161.53C472.71 141.697 475.322 123.662 475.55 108.951C475.663 101.597 475.185 94.8866 474.006 89.1041C472.844 83.4104 470.894 78.0687 467.668 73.945L455.067 83.8052ZM410.57 284.095C410.01 283.383 409.439 282.664 408.851 281.929L396.36 291.929C396.923 292.631 397.465 293.315 397.998 293.991L410.57 284.095ZM408.86 281.94C408.627 281.649 408.385 281.346 408.155 281.059L395.656 291.048C395.899 291.352 396.125 291.633 396.351 291.918L408.86 281.94ZM408.749 290.197C424.636 263.959 421.329 237.952 418.861 217.413L402.976 219.321C405.485 240.208 407.77 260.923 395.062 281.91L408.749 290.197ZM418.861 217.412C417.822 208.77 416.95 201.374 417.172 194.558L401.18 194.038C400.912 202.303 401.97 210.964 402.976 219.322L418.861 217.412ZM417.172 194.552C417.409 187.103 418.39 180.693 419.415 174.038L403.602 171.602C402.585 178.206 401.452 185.504 401.18 194.044L417.172 194.552ZM419.415 174.037C420.671 165.881 422.068 156.753 421.686 145.951L405.696 146.517C406.019 155.644 404.861 163.42 403.602 171.603L419.415 174.037ZM421.449 148.188C421.957 146.172 422.101 144.016 421.888 141.74L405.958 143.237C406.019 143.893 405.952 144.207 405.933 144.28L421.449 148.188ZM421.887 141.738C421.302 135.52 417.848 124.949 412.099 113.102C406.222 100.993 397.574 86.7755 385.947 73.2401L373.81 83.6659C384.418 96.0154 392.342 109.038 397.704 120.087C403.193 131.398 405.644 139.902 405.958 143.239L421.887 141.738ZM385.946 73.2397C373.222 58.4284 354.565 41.7334 328.99 30.449L322.531 45.0874C345.393 55.1745 362.212 70.1659 373.81 83.6662L385.946 73.2397ZM327.384 45.6018C337.375 43.5312 350.999 41.6109 366.194 41.949L366.55 25.953C349.848 25.5813 334.981 27.6875 324.137 29.9347L327.384 45.6018ZM134.126 333.797C129.253 339.657 125.877 341.133 124.345 341.524C122.958 341.878 122.193 341.61 121.377 341.338L116.319 356.518C118.041 357.091 122.403 358.533 128.303 357.027C134.057 355.558 140.127 351.604 146.427 344.029L134.126 333.797ZM121.38 341.339C119.105 340.58 115.922 338.486 111.996 334.087C108.141 329.766 103.996 323.703 99.686 315.852C91.0691 300.155 82.2335 278.13 73.8651 250.713L58.5621 255.384C67.1086 283.385 76.3226 306.541 85.6605 323.551C90.3276 332.053 95.1366 339.224 100.058 344.739C104.908 350.175 110.324 354.518 116.317 356.517L121.38 341.339ZM73.8651 250.713C59.3178 203.054 50.967 155.547 50.3374 142.96L34.3574 143.76C35.0805 158.215 43.8371 207.143 58.5621 255.384L73.8651 250.713ZM50.3374 142.961C48.2577 101.357 58.4707 75.0055 77.7849 61.3083L68.5293 48.2571C42.6798 66.589 32.1619 99.8411 34.3574 143.759L50.3374 142.961ZM77.7849 61.3083C93.9259 49.8616 115.969 47.1669 137.986 48.7465C159.81 50.3122 180.293 55.9813 192.128 59.8382L197.085 44.6257C184.642 40.5704 162.776 34.4839 139.131 32.7875C115.681 31.1051 89.1383 33.6418 68.5293 48.2571L77.7849 61.3083ZM188.996 46.5296C188.899 46.6245 188.8 46.7176 188.592 46.9135C188.412 47.0826 188.145 47.3348 187.864 47.6181L199.233 58.877C199.298 58.811 199.385 58.7272 199.561 58.5618C199.708 58.4231 199.965 58.1832 200.218 57.9343L188.996 46.5296ZM187.864 47.6188C166.39 69.3064 156.218 98.2858 151.342 121.721C146.44 145.277 146.697 164.178 146.754 166.613L162.749 166.242C162.709 164.477 162.444 146.905 167.006 124.98C171.593 102.934 180.868 77.4244 199.233 58.8763L187.864 47.6188ZM146.752 166.411C146.748 168.339 146.905 170.936 147.085 173.975L163.057 173.029C162.863 169.753 162.749 167.759 162.752 166.444L146.752 166.411ZM147.085 173.976C147.767 185.489 148.99 206.323 145.701 229.845L161.547 232.061C165.073 206.843 163.745 184.638 163.057 173.029L147.085 173.976ZM145.701 229.845C142.206 254.828 149.904 279.467 166.997 297.301L178.548 286.229C164.969 272.061 158.706 252.369 161.547 232.061L145.701 229.845ZM166.998 297.302C168.779 299.159 170.63 300.895 172.532 302.521L182.928 290.359C181.406 289.058 179.942 287.683 178.547 286.228L166.998 297.302ZM171.883 290.98C164.998 298.353 150.05 314.641 134.125 333.799L146.429 344.027C162.085 325.192 176.808 309.149 183.577 301.9L171.883 290.98ZM188.626 276.571C178.037 265.524 173.123 250.064 175.37 233.993L159.524 231.778C156.63 252.479 162.943 272.899 177.075 287.643L188.626 276.571ZM175.37 233.993C179.087 207.405 177.706 184.304 176.99 172.203L161.018 173.149C161.728 185.138 163.005 206.878 159.524 231.778L175.37 233.993ZM176.99 172.204C176.888 170.491 176.804 169.083 176.755 167.987L160.771 168.709C160.827 169.944 160.92 171.49 161.018 173.148L176.99 172.204ZM174.07 174.334C175.969 172.651 183.171 168.171 192.557 164.648C201.974 161.112 211.707 159.269 219.002 160.941L222.575 145.345C210.636 142.609 197.266 145.789 186.934 149.668C176.571 153.559 167.377 158.886 163.456 162.362L174.07 174.334ZM219.002 160.941C221.972 161.622 223.977 162.854 225.46 164.511C227.009 166.242 228.413 168.918 229.319 173.103L244.957 169.72C243.638 163.624 241.258 158.172 237.383 153.841C233.442 149.437 228.384 146.676 222.575 145.345L219.002 160.941ZM229.319 173.102C234.923 199.023 235.189 216.896 233.293 230.173C231.404 243.402 227.321 252.526 223.344 261.364L237.934 267.93C241.98 258.942 246.901 248.06 249.132 232.435C251.357 216.856 250.861 197.025 244.957 169.721L229.319 173.102ZM223.344 261.362C221.709 264.994 220.033 268.71 218.589 272.597L233.587 278.17C234.812 274.872 236.261 271.646 237.933 267.932L223.344 261.362ZM218.591 272.592L217.557 275.368L232.552 280.95L233.585 278.175L218.591 272.592ZM217.559 275.364C214.983 282.27 212.362 289.263 210.719 296.009L226.265 299.795C227.64 294.146 229.89 288.087 232.55 280.955L217.559 275.364ZM218.516 289.902C207.68 289.869 196.935 285.243 188.627 276.572L177.074 287.642C188.204 299.257 203.026 305.855 218.467 305.902L218.516 289.902ZM186.806 346.127C183.849 345.388 181.274 344.101 180.063 343.275L171.048 356.493C173.886 358.429 178.213 360.472 182.928 361.65L186.806 346.127ZM178.963 357.122C179.911 356.676 182.272 355.759 187.089 354.767L183.861 339.096C178.24 340.254 174.582 341.5 172.147 342.646L178.963 357.122ZM187.089 354.767C199.779 352.154 208.142 349.746 214.511 346.168C221.196 342.413 225.127 337.669 229.439 332.194L216.87 322.294C212.663 327.635 210.384 330.135 206.675 332.219C202.649 334.48 196.431 336.508 183.862 339.096L187.089 354.767ZM229.438 332.196C231.385 329.725 233.464 327.086 236.348 323.865L224.428 313.193C221.18 316.82 218.832 319.804 216.871 322.292L229.438 332.196ZM237.543 322.107C237.29 322.613 236.985 323.089 236.634 323.527C236.323 323.916 236.024 324.206 236.053 324.177L224.73 312.873C224.758 312.845 224.458 313.136 224.145 313.526C223.793 313.965 223.487 314.442 223.233 314.951L237.543 322.107ZM236.357 323.854C237.26 322.844 237.762 322.449 237.931 322.334C237.996 322.289 237.942 322.335 237.775 322.404C237.598 322.478 237.35 322.555 237.048 322.599C236.407 322.691 236.002 322.565 236.105 322.594C236.175 322.613 236.329 322.661 236.626 322.775C236.933 322.892 237.274 323.034 237.771 323.239L243.9 308.46C242.561 307.905 238.924 306.162 234.763 306.763C230.311 307.405 227.036 310.272 224.425 313.195L236.357 323.854ZM237.775 323.241C237.646 323.188 238.125 323.389 238.852 324.325C239.525 325.19 240.1 326.296 240.417 327.405L255.799 323C254.904 319.874 253.377 316.939 251.484 314.505C249.646 312.14 247.095 309.782 243.895 308.458L237.775 323.241ZM240.418 327.407C240.572 327.947 240.68 328.56 240.67 329.064C240.661 329.546 240.558 329.512 240.707 329.303L253.728 338.601C258.127 332.441 256.476 325.363 255.798 322.998L240.418 327.407ZM240.708 329.303C225.726 350.279 204.082 350.45 186.809 346.128L182.925 361.649C202.899 366.647 233.117 367.459 253.728 338.602L240.708 329.303ZM315.386 469.082C301.47 472.063 293.486 469.762 288.307 466.056C282.75 462.079 278.914 455.454 275.437 446.763L260.581 452.705C264.315 462.038 269.553 472.309 278.995 479.067C288.815 486.095 301.752 488.366 318.738 484.727L315.386 469.082ZM275.437 446.763C274.724 444.979 273.786 440.523 272.936 433.003C272.121 425.789 271.46 416.526 270.989 405.722C270.048 384.13 269.881 356.718 270.688 327.898L254.695 327.45C253.879 356.578 254.044 384.377 255.004 406.418C255.484 417.431 256.166 427.09 257.037 434.8C257.874 442.202 258.968 448.67 260.581 452.704L275.437 446.763ZM270.688 327.895C270.735 326.217 270.495 324.613 270.044 323.131L254.736 327.785C254.711 327.703 254.691 327.588 254.694 327.454L270.688 327.895ZM270.317 324.375C270.08 322.648 269.718 320.907 269.218 319.16L253.836 323.566C254.124 324.572 254.33 325.565 254.464 326.542L270.317 324.375ZM269.218 319.161C266.245 308.779 258.902 299.568 249.242 295.564L243.116 310.345C247.564 312.189 251.98 317.084 253.836 323.565L269.218 319.161ZM249.241 295.564C246.386 294.381 239.031 291.2 230.066 293.493L234.031 308.994C237.43 308.125 240.366 309.206 243.117 310.345L249.241 295.564ZM239.823 303.131C241.006 298.258 243.1 292.609 245.628 285.833L230.637 280.24C228.209 286.749 225.729 293.366 224.275 299.356L239.823 303.131ZM245.63 285.827L246.67 283.032L231.675 277.451L230.635 280.246L245.63 285.827ZM246.671 283.03C247.731 280.177 249.082 277.167 250.661 273.659L236.071 267.092C234.541 270.491 232.956 274.006 231.674 277.454L246.671 283.03ZM250.661 273.659C254.898 264.245 260.278 252.34 262.815 235.241C265.347 218.175 265.001 196.373 258.6 166.77L242.961 170.152C249.04 198.264 249.184 218.093 246.988 232.893C244.797 247.659 240.229 257.854 236.071 267.092L250.661 273.659ZM258.6 166.77C255.92 154.379 249.894 144.362 240.409 137.948C230.999 131.585 219.154 129.421 206.009 130.782L207.657 146.697C218.176 145.608 225.967 147.496 231.446 151.202C236.851 154.857 240.966 160.927 242.962 170.152L258.6 166.77ZM206.01 130.782C190.396 132.398 176.396 138.621 169.577 142.079L176.813 156.349C182.94 153.243 194.896 148.018 207.656 146.697L206.01 130.782ZM169.578 142.078C168.089 142.833 166.721 143.564 165.441 144.279L173.241 158.249C174.339 157.636 175.518 157.006 176.812 156.35L169.578 142.078ZM177.313 151.925C179.1 130.38 185.8 92.2482 209.189 68.659L197.828 57.3935C170.148 85.3102 163.194 128.586 161.368 150.603L177.313 151.925ZM209.19 68.6589C223.506 54.2199 242.701 46.8344 266.952 47.2351L267.216 31.2373C239.292 30.7758 215.664 39.4049 197.828 57.3936L209.19 68.6589ZM266.953 47.2351C315.341 48.0278 346.304 72.7635 363.943 93.6067L376.157 83.2709C356.591 60.1508 321.631 32.1287 267.215 31.2373L266.953 47.2351ZM363.943 93.6065C379.231 111.674 387.453 129.832 390.642 139.305L405.806 134.2C402.066 123.092 392.927 103.089 376.157 83.2711L363.943 93.6065ZM399.033 128.793C372.122 126.058 350.469 130.989 338.918 147.501L352.028 156.673C358.442 147.505 372.225 142.151 397.415 144.711L399.033 128.793ZM338.918 147.501C332.732 156.343 330.781 166.858 331.131 177.379C331.481 187.879 334.131 198.917 337.736 209.475C344.935 230.562 356.485 251.235 363.705 264.182L377.679 256.389C370.37 243.282 359.54 223.821 352.878 204.305C349.551 194.562 347.4 185.181 347.123 176.847C346.846 168.533 348.444 161.797 352.028 156.673L338.918 147.501ZM363.705 264.183C366.543 269.271 368.493 272.804 368.983 273.992L383.774 267.89C382.818 265.572 380.168 260.852 377.678 256.389L363.705 264.183ZM368.984 273.992C374.179 286.584 380.931 294.989 385.461 300.649L397.953 290.652C393.538 285.135 388.041 278.231 383.774 267.89L368.984 273.992ZM385.462 300.65C386.885 302.428 388.029 303.862 388.857 305.049L401.981 295.897C400.786 294.184 399.27 292.297 397.952 290.651L385.462 300.65ZM393.202 292.787C388.957 294.011 381.573 296.397 375.629 303.041C369.509 309.88 365.937 320.017 366.657 334.666L382.638 333.881C382.067 322.261 384.936 316.634 387.553 313.71C390.344 310.59 393.991 309.211 397.636 308.16L393.202 292.787ZM366.673 333.644C365.649 346.599 358.27 408.071 354.552 429.617L370.319 432.337C374.126 410.274 381.564 348.314 382.623 334.904L366.673 333.644ZM354.552 429.618C352.178 443.384 348.68 451.352 343.372 456.724C338.016 462.146 329.759 466 315.385 469.082L318.739 484.727C334.171 481.418 346.118 476.712 354.755 467.969C363.441 459.177 367.726 447.377 370.32 432.336L354.552 429.618ZM442.678 322.04C435.871 325.201 423.488 327.889 411.275 328.463L412.026 344.445C425.467 343.814 440.088 340.883 449.416 336.553L442.678 322.04ZM411.276 328.463C404.657 328.773 399.906 328.389 396.796 327.853C395.237 327.584 394.172 327.291 393.534 327.069C392.725 326.788 392.987 326.757 393.633 327.284L383.519 339.682C385.014 340.902 386.813 341.671 388.276 342.18C389.91 342.749 391.852 343.236 394.078 343.62C398.54 344.39 404.478 344.799 412.025 344.445L411.276 328.463ZM396.567 333.094C396.203 325.617 397.571 323.57 397.901 323.171C398.292 322.698 398.869 322.308 402.485 321.293L398.16 305.889C395.327 306.684 389.633 308.056 385.564 312.983C381.433 317.985 380.153 324.979 380.586 333.872L396.567 333.094ZM402.492 321.291C403.447 321.022 404.687 320.678 405.92 320.247L400.637 305.144C399.962 305.38 399.225 305.589 398.153 305.891L402.492 321.291ZM398.231 318.902C399.03 319.552 399.894 320.188 400.826 320.804L409.638 307.449C409.149 307.126 408.714 306.804 408.326 306.488L398.231 318.902ZM400.825 320.803C408.189 325.663 417.733 327.927 428.616 328.362C439.567 328.799 452.501 327.407 467.217 324.37L463.983 308.7C450.028 311.58 438.471 312.742 429.254 312.374C419.967 312.004 413.663 310.105 409.639 307.45L400.825 320.803ZM467.265 324.36C467.265 324.36 467.266 324.359 467.268 324.359C467.271 324.358 467.275 324.358 467.28 324.357C467.291 324.354 467.305 324.351 467.327 324.347C467.337 324.345 467.349 324.343 467.362 324.34C467.375 324.338 467.39 324.335 467.405 324.331C467.436 324.325 467.474 324.318 467.516 324.309L464.313 308.633C464.283 308.639 464.263 308.643 464.189 308.658C464.129 308.67 464.037 308.688 463.935 308.71L467.265 324.36ZM460.45 310.628C457.24 313.63 451.34 318.019 442.678 322.041L449.416 336.553C459.521 331.86 466.856 326.543 471.379 322.314L460.45 310.628Z" fill="#3E3F40" mask="url(#path-3-inside-1_108_81)"/>
</g>
</g>
<defs>
<clipPath id="clip0_108_81">
<rect width="456" height="474" fill="white" transform="translate(28 19)"/>
</clipPath>
<clipPath id="clip1_108_81">
<rect width="456" height="474" fill="white" transform="translate(28 19)"/>
</clipPath>
</defs>
</svg>
