<svg width="80" height="79" viewBox="0 0 80 79" fill="none" xmlns="http://www.w3.org/2000/svg">
<path fill-rule="evenodd" clip-rule="evenodd" d="M78.8836 47.1277C78.4108 45.7388 77.1721 44.7712 75.57 44.5389C74.8147 44.4296 73.9496 44.4762 72.926 44.681C71.1418 45.038 69.8181 45.1739 68.8521 45.2004C72.4984 39.2287 75.4635 32.4188 77.1704 26.0085C79.9305 15.6435 78.4556 10.9216 76.732 8.7856C72.1707 3.13248 65.5157 0.0953415 57.4868 0.00224163C53.2041 -0.0484598 49.4439 0.771773 47.4827 1.36146C45.6565 1.04913 43.6927 0.874589 41.6323 0.84226C37.7705 0.782549 34.358 1.59907 31.4423 3.27734C29.8277 2.74807 27.2372 2.00168 24.2453 1.52523C17.2084 0.404673 11.5371 1.2779 7.38887 4.12036C2.36564 7.56205 0.0368894 13.5416 0.467634 21.8932C0.604234 24.5449 2.13361 32.6124 4.5414 40.2638C5.92525 44.6614 7.40089 48.3135 8.92735 51.1192C11.092 55.0977 13.4082 57.4408 16.0085 58.282C17.4661 58.7532 20.1141 59.0828 22.8995 56.8332C23.2525 57.2477 23.7233 57.6598 24.3486 58.0425C25.1423 58.5281 26.1131 58.9249 27.0824 59.16C30.5762 60.0073 33.8488 59.7953 36.6407 58.608C36.6578 59.0895 36.6711 59.5497 36.6824 59.947C36.701 60.5917 36.7192 61.2236 36.7436 61.8145C36.909 65.8109 37.1893 68.9182 38.0198 71.0922C38.0654 71.2119 38.1267 71.3941 38.1916 71.5872C38.6058 72.8178 39.2988 74.8776 41.0613 76.4911C42.8868 78.1621 45.0946 78.6748 47.1166 78.6746C48.1308 78.6746 49.0984 78.5456 49.947 78.3691C52.9724 77.7404 56.4082 76.7822 58.8936 73.3497C61.2433 70.1046 62.3856 65.2172 62.5923 57.5159C62.6191 57.2982 62.6439 57.0903 62.6677 56.8921C62.6837 56.7583 62.7001 56.6216 62.7167 56.4852L63.2704 56.5324L63.413 56.5417C66.4943 56.678 70.2619 56.0441 72.5758 55.0016C74.4042 54.1786 80.263 51.1785 78.8836 47.1277Z" fill="#696c74"/>
<path fill-rule="evenodd" clip-rule="evenodd" d="M73.615 47.9156C64.4533 49.7486 63.8235 46.7399 63.8235 46.7399C73.4968 32.8177 77.5405 15.1455 74.0508 10.8204C64.5308 -0.977867 48.051 4.60194 47.776 4.7468L47.6875 4.76217C45.8774 4.39772 43.8517 4.1806 41.5751 4.14457C37.4295 4.07867 34.285 5.1987 31.8989 6.95381C31.8989 6.95381 2.5006 -4.79319 3.86788 21.7279C4.15874 27.3701 12.2052 64.419 21.8027 53.2285C25.3106 49.1365 28.6999 45.6766 28.6999 45.6766C30.3834 46.7613 32.3987 47.3146 34.5114 47.1159L34.6755 46.9807C34.6245 47.4888 34.6478 47.9858 34.7413 48.574C32.2688 51.2534 32.9953 51.7239 28.0528 52.7107C23.0516 53.7104 25.9896 55.4903 27.9078 55.9554C30.2333 56.5195 35.6133 57.3185 39.2485 52.3826L39.1035 52.9458C40.0723 53.6984 40.7526 57.8413 40.6385 61.5967C40.5245 65.3523 40.4484 67.9307 41.2117 69.9446C41.975 71.9585 42.7358 76.4898 49.2332 75.1395C54.6624 74.0109 57.4758 71.0865 57.8672 66.2084C58.145 62.7404 58.7735 63.2531 58.8132 60.1525L59.3174 58.6846C59.8987 53.9835 59.4097 52.4669 62.7546 53.1723L63.5675 53.2416C66.0293 53.3502 69.2515 52.8575 71.1425 52.0049C75.2147 50.1719 77.6301 47.1115 73.615 47.9156Z" fill="#696c74"/>
<path fill-rule="evenodd" clip-rule="evenodd" d="M33.6197 24.2511C32.7943 24.1397 32.0464 24.2428 31.6681 24.5205C31.4552 24.6769 31.3895 24.858 31.3718 24.9827C31.3243 25.3129 31.5628 25.6778 31.7093 25.8661C32.1238 26.3991 32.7296 26.7655 33.3292 26.8463C33.4161 26.8579 33.5024 26.8636 33.5884 26.8636C34.5883 26.8636 35.4971 26.1085 35.5772 25.5512C35.6774 24.8532 34.6327 24.3879 33.6197 24.2511Z" fill="white"/>
<path fill-rule="evenodd" clip-rule="evenodd" d="M60.9706 24.2732C60.8919 23.7261 59.8878 23.5701 58.9353 23.6985C57.9842 23.8271 57.0617 24.2435 57.1387 24.7919C57.2006 25.2183 57.9942 25.9464 58.934 25.9462C59.0132 25.9462 59.0934 25.9411 59.174 25.9301C59.8013 25.8458 60.2616 25.4595 60.4801 25.2367C60.8132 24.8975 61.0058 24.5191 60.9706 24.2732Z" fill="white"/>
<path fill-rule="evenodd" clip-rule="evenodd" d="M76.6637 47.7073C76.3144 46.6827 75.1901 46.3529 73.322 46.7272C67.7753 47.8375 65.7889 47.0684 65.1365 46.6025C69.448 40.2318 72.9947 32.5314 74.908 25.3464C75.8144 21.9431 76.3151 18.7824 76.3559 16.2064C76.4011 13.3784 75.9048 11.3007 74.8806 10.0314C70.7519 4.91427 64.6925 2.16951 57.3574 2.09407C52.3149 2.03913 48.0545 3.29094 47.2285 3.64285C45.4891 3.22328 43.5929 2.96571 41.5288 2.93285C37.7432 2.8735 34.4712 3.75256 31.7619 5.54424C30.5852 5.11955 27.5439 4.10694 23.8249 3.5259C17.3949 2.52159 12.2855 3.28246 8.63922 5.78803C4.28842 8.77783 2.27986 14.1221 2.66908 21.6722C2.80003 24.2126 4.29206 32.0268 6.64704 39.5105C9.74677 49.3602 13.116 54.9363 16.6614 56.0831C17.0763 56.2174 17.555 56.3114 18.0825 56.3114C19.3758 56.3114 20.9612 55.7459 22.611 53.8222C25.3512 50.6247 27.9096 47.9453 28.8527 46.9717C30.2464 47.6974 31.7772 48.1025 33.3434 48.1432C33.3461 48.1829 33.3503 48.2227 33.3539 48.2622C33.0398 48.6237 32.782 48.9404 32.5624 49.2109C31.4774 50.5468 31.2516 50.8249 27.759 51.5225C26.7656 51.7212 24.1267 52.2487 24.0883 54.0427C24.0462 56.0028 27.2071 56.826 27.5674 56.9133C28.8225 57.218 30.0315 57.3683 31.1846 57.3683C33.989 57.3682 36.4568 56.4743 38.4291 54.7446C38.3683 61.7324 38.6688 68.6181 39.5337 70.7161C40.242 72.4334 41.9728 76.6308 47.4399 76.6305C48.2419 76.6305 49.125 76.54 50.0963 76.3381C55.8018 75.1515 58.2794 72.7056 59.238 67.3132C59.7509 64.4314 60.6311 57.5494 61.0449 53.8581C61.9186 54.1224 63.0435 54.2434 64.2594 54.2432C66.7954 54.2432 69.7215 53.7207 71.5567 52.8944C73.6181 51.9659 77.3384 49.687 76.6637 47.7073ZM63.0764 22.7629C63.0575 23.8528 62.9029 24.8421 62.7389 25.8748C62.5626 26.9855 62.3801 28.1338 62.3342 29.5278C62.2889 30.8844 62.4635 32.2948 62.6326 33.6586C62.9739 36.4135 63.3241 39.2497 61.9681 42.0484C61.7574 41.6853 61.554 41.2893 61.3675 40.8506C61.199 40.4544 60.8331 39.8179 60.3266 38.9369C58.3552 35.5079 53.7388 27.478 56.102 24.2013C56.8058 23.2258 58.5921 22.2232 63.0764 22.7629ZM57.641 4.30091C64.2131 4.44171 69.4117 6.82644 73.0927 11.3885C75.9157 14.8878 72.8071 30.8102 63.8077 44.5464C63.7188 44.4368 63.6283 44.3262 63.5347 44.2128C63.4973 44.1674 63.4593 44.1213 63.4208 44.0747C65.7463 40.3494 65.2915 36.6638 64.8868 33.3959C64.7205 32.0549 64.5635 30.7883 64.6034 29.5986C64.6448 28.3373 64.8167 27.2559 64.9828 26.2101C65.1873 24.9212 65.3952 23.5878 65.3378 22.0157C65.3806 21.8508 65.3979 21.656 65.3755 21.4247C65.2291 19.9171 63.4547 15.4058 59.8379 11.3219C57.8598 9.08857 54.9746 6.58901 51.0354 4.90314C52.7298 4.56254 55.0469 4.24491 57.641 4.30091ZM20.8653 52.4143C19.0478 54.5338 17.7925 54.1277 17.3798 53.9943C14.6902 53.1241 11.5697 47.6107 8.81844 38.8676C6.43777 31.3025 5.04646 23.6954 4.93645 21.5622C4.58876 14.8159 6.27477 10.1141 9.94784 7.58749C15.9254 3.47573 25.7534 5.93678 29.7024 7.18506C29.6455 7.2393 29.5865 7.29017 29.5302 7.34529C23.0501 13.6932 23.2039 24.5387 23.2197 25.2016C23.2192 25.4574 23.2412 25.8195 23.2716 26.3177C23.3831 28.1417 23.5905 31.5368 23.0363 35.3816C22.521 38.9544 23.6565 42.4513 26.1509 44.9758C26.4092 45.2371 26.6788 45.4825 26.9573 45.7134C25.8468 46.8668 23.4337 49.4172 20.8653 52.4143ZM27.7901 43.4521C25.7796 41.4175 24.8665 38.5873 25.2847 35.6865C25.8701 31.6249 25.6539 28.0877 25.5379 26.1873C25.5217 25.9214 25.5073 25.6884 25.4987 25.5045C26.4455 24.6905 30.8325 22.4103 33.961 23.1057C35.3889 23.4229 36.2586 24.3658 36.6203 25.9879C38.4923 34.385 36.8682 37.885 35.5632 40.6975C35.2942 41.2769 35.0401 41.8246 34.823 42.3913L34.6549 42.8292C34.2291 43.9367 33.833 44.9663 33.5874 45.9441C31.4503 45.9377 29.3711 45.0523 27.7901 43.4521ZM28.1182 54.7769C27.4942 54.6257 26.9328 54.363 26.6035 54.1452C26.8786 54.0196 27.3681 53.8489 28.2171 53.6793C32.3258 52.8587 32.9602 52.2798 34.3458 50.5733C34.6637 50.1822 35.0237 49.7386 35.5224 49.1983V49.1983C36.2653 48.3917 36.6056 48.5277 37.2217 48.7756C37.7211 48.9761 38.2074 49.5831 38.4047 50.2512C38.4979 50.5668 38.6028 51.1658 38.2599 51.6317C35.3652 55.5627 31.1474 55.5122 28.1182 54.7769ZM49.6204 74.185C44.5941 75.2296 42.8145 72.742 41.6417 69.8983C40.8848 68.0623 40.5129 59.7835 40.7768 50.6411C40.7802 50.5194 40.7624 50.4019 40.7278 50.2915C40.6977 50.0783 40.6515 49.8626 40.5874 49.6455C40.1947 48.3152 39.2383 47.2024 38.0909 46.7412C37.635 46.558 36.7981 46.2218 35.7925 46.4712C36.0071 45.6143 36.379 44.6467 36.7821 43.5988L36.9513 43.1578C37.1418 42.6609 37.3805 42.1461 37.6333 41.6013C38.999 38.6585 40.8693 34.628 38.8394 25.5224C38.079 22.1119 35.5401 20.4466 31.6911 20.8333C29.3834 21.0649 27.2725 21.968 26.2196 22.4858C25.9932 22.5971 25.7861 22.7045 25.5927 22.8092C25.8865 19.3728 26.997 12.9511 31.1503 8.88806C33.7652 6.33003 37.248 5.06673 41.4913 5.13474C49.8521 5.26759 55.2136 9.42935 58.2393 12.8974C60.8466 15.8859 62.2585 18.8962 62.822 20.5197C58.5847 20.1019 55.7028 20.9133 54.2417 22.9391C51.0635 27.3457 55.9805 35.8988 58.3437 40.0094C58.777 40.7628 59.1511 41.4138 59.2688 41.6905C60.0383 43.4995 61.0345 44.7071 61.762 45.5888C61.9849 45.8589 62.2013 46.1209 62.3657 46.3497C61.0824 46.7087 58.7772 47.5377 58.9872 51.6824C58.8178 53.7622 57.6128 63.499 57.0008 66.9391C56.1929 71.4838 54.4686 73.1768 49.6204 74.185ZM70.6007 50.8971C69.2884 51.488 67.0923 51.9313 65.0059 52.0263C62.7016 52.1311 61.5287 51.776 61.2527 51.5576C61.123 48.9749 62.1144 48.7049 63.1633 48.4193C63.3281 48.3742 63.489 48.3306 63.6441 48.2779C63.7407 48.3541 63.8463 48.4297 63.962 48.5037C65.8141 49.6895 69.1176 49.8174 73.7811 48.8837C73.7982 48.8802 73.8154 48.877 73.8323 48.8736C73.2034 49.4441 72.127 50.2097 70.6007 50.8971Z" fill="white"/>
</svg>
