<svg width="128" height="128" viewBox="0 0 128 128" fill="none" xmlns="http://www.w3.org/2000/svg">
<path fill-rule="evenodd" clip-rule="evenodd" d="M14.6771 69.2503C13.4532 70.8852 13.4722 72.9484 14.7259 74.5686L37.4188 103.891C38.8917 105.794 41.7305 106.662 44.3653 106.014L109.852 89.922C113.426 89.0438 115.224 85.7783 113.662 83.0027L71.5637 8.20084C69.5107 4.55293 63.3217 4.25349 60.7587 7.67807L14.6771 69.2503ZM70.4452 25.3013C69.5504 23.6054 66.5206 23.8667 66.0764 25.6779L49.869 91.7807C49.5272 93.1745 51.1204 94.3648 52.7835 93.9583L98.0291 82.8947C99.3497 82.5723 100.03 81.3773 99.4835 80.341L70.4452 25.3013Z" fill="#3E3F40"/>
</svg>
