<svg width="65" height="84" viewBox="0 0 65 84" fill="none" xmlns="http://www.w3.org/2000/svg">
<path fill-rule="evenodd" clip-rule="evenodd" d="M1.72032 83.0247C1.72057 82.9857 1.72057 82.9857 1.72174 82.7961C1.72335 82.5335 1.72335 82.5335 1.72575 82.1299C1.73007 81.4003 1.73489 80.5535 1.74007 79.599C1.75488 76.8719 1.7697 73.8288 1.78352 70.546C1.82302 61.1667 1.84672 51.7461 1.84672 42.8956C1.84672 38.3352 1.80767 34.3527 1.7239 28.7804C1.46794 11.7542 1.59104 8.51145 3.0084 5.4515C4.43223 2.37755 7.10545 1.59935 15.2884 1.59935H64.0868L63.2892 0.799676V57.3102C63.2892 59.0445 63.308 60.5409 63.3532 63.0615C63.5275 72.7765 63.313 75.5389 61.7491 78.0992C59.9199 81.0938 55.9821 82.4006 48.0572 82.4006C43.5827 82.4006 38.319 82.3903 32.4272 82.3711C27.6879 82.3557 22.6643 82.335 17.4949 82.3103C13.3605 82.2905 9.36818 82.2693 5.6675 82.2482C4.37227 82.2407 3.20601 82.2339 2.18742 82.2277C1.83092 82.2255 1.62253 82.2242 1.25203 82.2219C0.983398 82.2203 0.983398 82.2203 0.927844 82.2199L1.72032 83.0247ZM0.120189 83.8142L0.917745 83.8192C0.973404 83.8196 0.973404 83.8196 1.24215 83.8213C1.61276 83.8236 1.82119 83.8248 2.17777 83.827C3.19654 83.8332 4.36298 83.8401 5.65839 83.8475C9.35955 83.8687 13.3523 83.8898 17.4873 83.9096C22.6574 83.9343 27.6819 83.9551 32.422 83.9705C38.3154 83.9897 43.5808 84 48.0572 84C56.482 84 60.9136 82.5293 63.1094 78.9345C64.9083 75.9894 65.1294 73.1418 64.948 63.0327C64.903 60.5211 64.8843 59.0325 64.8843 57.3102V0H15.2884C6.51411 0 3.34784 0.921735 1.56173 4.77781C0.668927 6.7053 0.237505 9.37385 0.0809931 13.4966C-0.0396311 16.674 -0.027043 18.425 0.128995 28.8045C0.212655 34.3695 0.25163 38.3447 0.25163 42.8956C0.25163 51.7436 0.227937 61.162 0.188448 70.5393C0.174627 73.8213 0.159819 76.8638 0.14501 79.5902C0.139827 80.5445 0.135015 81.391 0.130696 82.1204C0.12829 82.5239 0.12829 82.5239 0.126686 82.7863C0.125514 82.9757 0.120189 83.8142 0.120189 83.8142Z" fill="#696c74"/>
<path fill-rule="evenodd" clip-rule="evenodd" d="M6.963 63.7317V76.0767H10.1033V72.8614L12.9612 75.7269H17.7797L13.9581 71.8951C13.9581 71.8951 16.7074 71.8506 16.9157 67.8634C16.9157 64.2056 14.163 63.7317 10.9839 63.7317H6.963ZM10.2529 67.0804H12.9612V69.2795H10.2529V67.0804Z" fill="#696c74"/>
<path fill-rule="evenodd" clip-rule="evenodd" d="M23.8443 63.7817C22.125 63.772 19.7403 63.9318 19.7403 67.1803V75.7602H22.9637V73.661H26.0874V75.7102H29.3274V66.7138C29.3274 63.8921 26.2008 63.7817 24.5256 63.7817C24.3162 63.7817 24.0899 63.7833 23.8443 63.7817ZM23.0135 66.8804H26.0376V70.2624H23.0135V66.8804Z" fill="#696c74"/>
<path d="M32.5569 63.7898H35.8923V75.5994H32.5569V63.7898Z" fill="#696c74"/>
<path fill-rule="evenodd" clip-rule="evenodd" d="M39.384 63.9465V75.7561H47.4098V72.6209H42.6673V63.8943L39.384 63.9465Z" fill="#696c74"/>
<path fill-rule="evenodd" clip-rule="evenodd" d="M58.0414 63.842V67.0296H52.6735V68.1792H54.9666C56.1652 68.1792 58.6668 68.1269 58.6668 71.8893C58.6668 75.6516 56.947 75.8606 53.4552 75.8606H49.2339V72.9866H54.0806C55.5398 72.9866 55.6203 72.5103 55.6203 72.0953C55.6203 71.6803 54.8743 71.4872 53.3569 71.4872C51.8396 71.4872 49.0254 70.7397 49.0254 67.8134C49.0254 64.8871 50.4846 63.7898 53.4031 63.7898C56.3216 63.7898 58.0414 63.842 58.0414 63.842Z" fill="#696c74"/>
<path fill-rule="evenodd" clip-rule="evenodd" d="M9.88666 60.2365H37.6121C37.6121 60.2365 31.4625 46.2321 33.0259 33.3774C34.5894 20.5227 44.6998 14.6702 50.4325 14.0431C56.1652 13.4161 59.2922 16.9694 59.2922 16.9694L60.5429 15.0882C60.5429 15.0882 52.3087 6.72746 41.8856 7.66804C31.4625 8.60863 24.2705 15.5063 19.7886 23.8671C15.3067 32.2278 12.7009 38.0804 10.929 46.8592C9.15704 55.638 9.88666 60.2365 9.88666 60.2365Z" fill="#696c74"/>
<path fill-rule="evenodd" clip-rule="evenodd" d="M4.36242 46.2321L9.78243 46.6502L8.84435 52.0847L3.73703 51.4576L4.36242 46.2321Z" fill="#696c74"/>
<path fill-rule="evenodd" clip-rule="evenodd" d="M12.9094 34.7361L14.3686 30.6602L9.57397 28.779L8.0105 33.1684L12.9094 34.7361Z" fill="#696c74"/>
<path fill-rule="evenodd" clip-rule="evenodd" d="M19.6844 20.7318L22.4986 17.3874L18.8505 14.9837L15.9321 18.2235L19.6844 20.7318Z" fill="#696c74"/>
<path fill-rule="evenodd" clip-rule="evenodd" d="M27.0848 7.77255L29.5863 10.8033L33.0259 8.81765L30.5244 5.99589L27.0848 7.77255Z" fill="#696c74"/>
<path fill-rule="evenodd" clip-rule="evenodd" d="M39.2798 4.32373L39.9052 7.35451L44.1787 7.25L43.7617 4.53275L39.2798 4.32373Z" fill="#696c74"/>
<path fill-rule="evenodd" clip-rule="evenodd" d="M53.7679 7.56353L53.6637 9.44471L56.5822 11.0124L57.2075 10.0718L53.7679 7.56353Z" fill="#696c74"/>
<path fill-rule="evenodd" clip-rule="evenodd" d="M53.1425 15.6108V17.1784L55.9568 17.492V16.2378L53.1425 15.6108Z" fill="#696c74"/>
<path fill-rule="evenodd" clip-rule="evenodd" d="M44.1787 16.9694L45.5337 19.4776L47.5141 17.91L47.0971 16.2378L44.1787 16.9694Z" fill="#696c74"/>
<path fill-rule="evenodd" clip-rule="evenodd" d="M39.9052 20.2092L41.9898 23.3445L40.739 25.5392L37.7163 22.1949L39.9052 20.2092Z" fill="#696c74"/>
<path fill-rule="evenodd" clip-rule="evenodd" d="M35.736 28.8835L34.3809 31.6008L37.9248 34.6316L38.7587 31.1827L35.736 28.8835Z" fill="#696c74"/>
<path fill-rule="evenodd" clip-rule="evenodd" d="M34.2767 38.3939L34.0683 42.0518L38.446 43.9329L38.2375 40.4841L34.2767 38.3939Z" fill="#696c74"/>
<path fill-rule="evenodd" clip-rule="evenodd" d="M35.5275 51.3531L36.5698 55.1155L42.094 55.429L40.1137 51.3531H35.5275Z" fill="#696c74"/>
</svg>
