<svg width="128" height="128" viewBox="0 0 128 128" fill="none" xmlns="http://www.w3.org/2000/svg">
<g clip-path="url(#clip0_168_60)">
<path d="M99.2746 64C99.2746 67.2223 97.9572 70.139 95.8242 72.2483C93.6912 74.36 90.7451 75.6667 87.4903 75.6667C84.2355 75.6667 81.2894 76.971 79.1587 79.0827C77.0257 81.1943 75.706 84.111 75.706 87.3333C75.706 90.5557 74.3886 93.4723 72.2555 95.5817C70.1225 97.6933 67.1765 99 63.9216 99C60.6668 99 57.7208 97.6933 55.5901 95.5817C53.4571 93.4723 52.1373 90.5557 52.1373 87.3333C52.1373 84.111 53.4571 81.1943 55.5901 79.0827C57.7208 76.971 60.6668 75.6667 63.9216 75.6667C67.1765 75.6667 70.1225 74.36 72.2555 72.2483C74.3886 70.139 75.706 67.2223 75.706 64C75.706 57.5553 70.4313 52.3333 63.9216 52.3333C60.6668 52.3333 57.7208 51.0267 55.5901 48.915C53.4571 46.8057 52.1373 43.889 52.1373 40.6667C52.1373 37.4443 53.4571 34.5277 55.5901 32.416C57.7208 30.3043 60.6668 29 63.9216 29C70.4313 29 75.706 34.222 75.706 40.6667C75.706 43.889 77.0257 46.8057 79.1587 48.915C81.2894 51.0267 84.2355 52.3333 87.4903 52.3333C93.9999 52.3333 99.2746 57.5553 99.2746 64Z" fill="#3E3F40"/>
<path d="M52.1372 64C52.1372 57.5565 46.8612 52.3334 40.3529 52.3334C33.8447 52.3334 28.5686 57.5565 28.5686 64C28.5686 70.4433 33.8447 75.6667 40.3529 75.6667C46.8612 75.6667 52.1372 70.4433 52.1372 64Z" fill="#3E3F40"/>
<path d="M28.5686 87.3333C28.5686 80.89 23.2926 75.6666 16.7843 75.6666C10.276 75.6666 5 80.89 5 87.3333C5 93.7768 10.276 99 16.7843 99C23.2926 99 28.5686 93.7768 28.5686 87.3333Z" fill="#3E3F40"/>
<path d="M122.843 87.3333C122.843 80.89 117.567 75.6666 111.059 75.6666C104.551 75.6666 99.2745 80.89 99.2745 87.3333C99.2745 93.7768 104.551 99 111.059 99C117.567 99 122.843 93.7768 122.843 87.3333Z" fill="#3E3F40"/>
</g>
<defs>
<clipPath id="clip0_168_60">
<rect width="118" height="70" fill="white" transform="translate(5 29)"/>
</clipPath>
</defs>
</svg>
