<svg width="80" height="71" viewBox="0 0 80 71" fill="none" xmlns="http://www.w3.org/2000/svg">
<path d="M65.1765 22.7769C64.3604 22.496 63.5147 22.2302 62.6439 21.9789C62.787 21.3947 62.9184 20.8182 63.0352 20.2515C64.9523 10.9454 63.6988 3.44838 59.4185 0.980036C55.3142 -1.38678 48.602 1.08101 41.823 6.9806C41.1711 7.5479 40.5174 8.14853 39.8639 8.77801C39.4286 8.36153 38.9939 7.95906 38.5603 7.57409C31.4557 1.26586 24.3344 -1.39252 20.0583 1.08297C15.9579 3.45664 14.7436 10.5046 16.4693 19.324C16.636 20.1758 16.8308 21.0458 17.0511 21.9303C16.0432 22.2164 15.0702 22.5214 14.1392 22.8458C5.80978 25.7498 0.490234 30.3011 0.490234 35.022C0.490234 39.8978 6.20077 44.7882 14.8765 47.7536C15.5612 47.9876 16.2716 48.2089 17.0037 48.4189C16.7661 49.3755 16.5594 50.313 16.3859 51.2273C14.7404 59.8936 16.0254 66.775 20.1148 69.1337C24.3389 71.5696 31.428 69.0658 38.3309 63.0318C38.8765 62.5548 39.4241 62.049 39.9726 61.5188C40.6836 62.2034 41.3935 62.8514 42.0995 63.4592C48.7859 69.213 55.3897 71.5364 59.4754 69.1711C63.6952 66.7283 65.0666 59.336 63.2861 50.3421C63.1502 49.6552 62.9919 48.9534 62.8142 48.2392C63.3121 48.0921 63.8008 47.9401 64.2773 47.7822C73.2966 44.7939 79.1648 39.9629 79.1648 35.022C79.1648 30.284 73.6737 25.7021 65.1765 22.7769ZM63.2203 44.5919C62.7901 44.7343 62.3487 44.872 61.8989 45.0054C60.9032 41.8533 59.5594 38.5014 57.9149 35.0384C59.4842 31.6578 60.7761 28.3488 61.7439 25.2171C62.5487 25.45 63.3298 25.6956 64.0826 25.9549C71.3629 28.4612 75.8039 32.1667 75.8039 35.022C75.8039 38.0634 71.0078 42.0115 63.2203 44.5919ZM59.9891 50.9948C60.7764 54.9718 60.8888 58.5675 60.3673 61.3783C59.8987 63.9041 58.9564 65.5881 57.7913 66.2625C55.3119 67.6976 50.0097 65.8322 44.2914 60.9114C43.6359 60.3474 42.9756 59.7451 42.3132 59.1076C44.5301 56.6831 46.7456 53.8645 48.908 50.7342C52.7113 50.3967 56.3046 49.8449 59.5632 49.0917C59.7237 49.7391 59.8662 50.374 59.9891 50.9948ZM27.3122 66.0145C24.8898 66.87 22.9604 66.8945 21.7942 66.222C19.3126 64.7907 18.2809 59.2656 19.6881 51.8541C19.8493 51.0053 20.0412 50.1334 20.2623 49.2422C23.4852 49.9549 27.0521 50.4677 30.8646 50.7768C33.0415 53.8399 35.3211 56.6554 37.6183 59.1206C37.1164 59.6051 36.6164 60.0664 36.1193 60.5011C33.0668 63.1693 30.0079 65.0624 27.3122 66.0145ZM15.9635 44.5733C12.1273 43.2621 8.95914 41.5579 6.78754 39.6984C4.83623 38.0273 3.85105 36.3682 3.85105 35.022C3.85105 32.1572 8.12212 28.5032 15.2455 26.0196C16.1098 25.7182 17.0146 25.4342 17.9536 25.1674C18.9381 28.3698 20.2295 31.7181 21.788 35.1038C20.2094 38.5398 18.8996 41.9414 17.9054 45.1813C17.236 44.9889 16.5875 44.7864 15.9635 44.5733ZM19.7677 18.6785C18.2891 11.1223 19.2711 5.4221 21.7421 3.99173C24.3741 2.46796 30.1943 4.64054 36.3286 10.0874C36.7208 10.4355 37.1144 10.7999 37.5092 11.1769C35.2233 13.6314 32.9646 16.4257 30.807 19.4707C27.1069 19.8137 23.565 20.3646 20.3085 21.1023C20.1038 20.2788 19.9224 19.4696 19.7677 18.6785ZM53.7044 27.0584C52.9259 25.7137 52.1267 24.4008 51.3119 23.1238C53.8221 23.4411 56.2272 23.8624 58.4857 24.3779C57.8077 26.551 56.9625 28.8232 55.9677 31.1524C55.254 29.7976 54.4992 28.4315 53.7044 27.0584ZM39.8651 13.5789C41.4153 15.2583 42.9678 17.1335 44.4948 19.168C42.956 19.0953 41.3982 19.0575 39.8275 19.0575C38.2717 19.0575 36.7254 19.0945 35.1961 19.1659C36.7247 17.1503 38.2906 15.2777 39.8651 13.5789ZM25.9371 27.0816C25.1595 28.4301 24.4187 29.7887 23.7162 31.1499C22.7375 28.8288 21.9002 26.5463 21.2163 24.3423C23.4609 23.84 25.8546 23.4292 28.3489 23.1179C27.5227 24.4067 26.7169 25.7295 25.9371 27.0816ZM28.4207 47.1658C25.8437 46.8783 23.414 46.4888 21.1699 46.0003C21.8648 43.757 22.7206 41.4258 23.72 39.0546C24.4243 40.4148 25.168 41.774 25.9504 43.1254C26.7474 44.5021 27.5732 45.8507 28.4207 47.1658ZM39.9581 56.7021C38.3651 54.9834 36.7762 53.0822 35.2244 51.0372C36.7308 51.0963 38.2666 51.1266 39.8275 51.1266C41.4311 51.1266 43.0164 51.0905 44.5767 51.021C43.0447 53.1028 41.4978 55.0069 39.9581 56.7021ZM55.9997 38.9337C57.0513 41.3305 57.9377 43.6496 58.6416 45.8546C56.3605 46.375 53.8976 46.7942 51.3027 47.1056C52.1194 45.8114 52.9256 44.476 53.7178 43.1023C54.5192 41.7126 55.2802 40.3207 55.9997 38.9337ZM50.8065 41.4232C49.5767 43.5556 48.3141 45.5912 47.0323 47.5127C44.6977 47.6796 42.2858 47.7656 39.8275 47.7656C37.3792 47.7656 34.9977 47.6896 32.7044 47.5407C31.371 45.594 30.0809 43.5524 28.8589 41.4416C27.6402 39.3365 26.5187 37.2136 25.5023 35.1027C26.5184 32.9868 27.6372 30.8616 28.849 28.7603C30.064 26.6534 31.3424 24.6221 32.6635 22.6876C35.0033 22.5107 37.4026 22.4184 39.8274 22.4184C42.2631 22.4184 44.6656 22.5114 47.0047 22.6898C48.3057 24.6102 49.5757 26.6353 50.7954 28.7425C52.0291 30.8733 53.1623 32.9844 54.1871 35.0549C53.1653 37.161 52.0347 39.2934 50.8065 41.4232ZM57.7397 3.89174C60.3743 5.41103 61.3988 11.5383 59.7436 19.5731C59.638 20.0858 59.5191 20.608 59.39 21.1372C56.1259 20.3841 52.5815 19.8236 48.8706 19.4755C46.7088 16.397 44.4686 13.5983 42.22 11.1753C42.8245 10.5938 43.4282 10.0392 44.0294 9.51588C49.8377 4.46114 55.2664 2.46544 57.7397 3.89174ZM39.8275 27.9966C43.7075 27.9966 46.8529 31.1419 46.8529 35.022C46.8529 38.902 43.7075 42.0474 39.8275 42.0474C35.9476 42.0474 32.8022 38.902 32.8022 35.022C32.8022 31.1419 35.9476 27.9966 39.8275 27.9966Z" fill="#565a64"/>
</svg>
