<svg width="128" height="128" viewBox="0 0 128 128" fill="none" xmlns="http://www.w3.org/2000/svg">
<g clip-path="url(#clip0_146_54)">
<path fill-rule="evenodd" clip-rule="evenodd" d="M114.124 97.9398C115.273 112.613 115.273 119.492 115.273 127H81.1239C81.1239 125.365 81.1533 123.869 81.183 122.351C81.2754 117.636 81.3718 112.718 80.6032 102.787C79.5874 88.2467 73.2896 85.0159 61.7097 85.0159H51.4502H8V58.562H63.335C77.9621 58.562 85.276 54.1383 85.276 42.4258C85.276 32.127 77.9621 25.8859 63.335 25.8859H8V0H69.4297C102.544 0 119 15.5492 119 40.3876C119 58.9659 107.42 71.0821 91.7769 73.1015C104.982 75.7266 112.702 83.1984 114.124 97.9398Z" fill="#3E3F40"/>
<path d="M8 127V107.28H44.108C50.1392 107.28 51.4488 111.727 51.4488 114.379V127H8Z" fill="#3E3F40"/>
</g>
<defs>
<clipPath id="clip0_146_54">
<rect width="111" height="127" fill="white" transform="translate(8)"/>
</clipPath>
</defs>
</svg>
