<svg width="42" height="36" viewBox="0 0 42 36" fill="none" xmlns="http://www.w3.org/2000/svg">
<path fill-rule="evenodd" clip-rule="evenodd" d="M33.0774 7.62418C32.6945 7.67821 32.1487 7.83587 31.2753 8.09251L17.5631 12.1217C14.8782 12.9106 12.9612 13.4759 11.705 14.0221C11.0768 14.2952 10.7011 14.528 10.4928 14.7213C10.3143 14.8869 10.3145 14.9668 10.3146 14.998C10.3146 14.9987 10.3146 14.9994 10.3146 15C10.3146 15.0006 10.3146 15.0013 10.3146 15.002C10.3145 15.0332 10.3143 15.1131 10.4928 15.2787C10.7011 15.472 11.0768 15.7048 11.705 15.9779C12.9612 16.5241 14.8782 17.0894 17.5631 17.8783L17.9071 17.9794C17.9609 17.9952 18.0142 18.0108 18.0672 18.0262C18.8436 18.2528 19.5337 18.4543 20.0557 18.9382C20.5778 19.4221 20.8308 20.095 21.1155 20.852C21.1349 20.9037 21.1545 20.9557 21.1743 21.0081L21.8337 22.7519C22.6319 24.8627 23.1941 26.3428 23.7191 27.3074C24.2726 28.3245 24.5612 28.3454 24.6398 28.3454C24.7183 28.3454 25.007 28.3245 25.5605 27.3074C26.0855 26.3428 26.6477 24.8627 27.4459 22.7519L32.4926 9.40564C32.8145 8.55415 33.013 8.02178 33.0959 7.64408C33.0976 7.63617 33.0993 7.62847 33.1008 7.62098C33.0932 7.62198 33.0854 7.62305 33.0774 7.62418ZM33.3387 7.61031C33.3385 7.61049 33.3352 7.6101 33.3295 7.60861C33.3361 7.60939 33.339 7.61014 33.3387 7.61031ZM33.1305 7.39394C33.1294 7.38809 33.1293 7.38476 33.1295 7.38456C33.1297 7.38436 33.1302 7.38728 33.1305 7.39394ZM32.798 5.6438C33.3532 5.56545 34.1108 5.56301 34.6701 6.1663C35.2293 6.76959 35.1696 7.52487 35.0494 8.07255C34.9313 8.6114 34.6771 9.28347 34.39 10.0423L34.3633 10.113L29.3166 23.4593L29.2859 23.5404C28.5254 25.5517 27.9162 27.1629 27.3172 28.2635C26.7388 29.3263 25.9432 30.3454 24.6398 30.3454C23.3364 30.3454 22.5408 29.3263 21.9624 28.2635C21.3634 27.1629 20.7542 25.5517 19.9937 23.5404L19.963 23.4593L19.3036 21.7155C18.9228 20.7083 18.828 20.5272 18.6961 20.4049C18.5642 20.2827 18.3764 20.2018 17.3433 19.8983L16.9992 19.7972L16.9194 19.7737C14.3312 19.0132 12.2927 18.4142 10.9076 17.8121C10.208 17.5079 9.58789 17.1674 9.13232 16.7447C8.6508 16.2978 8.31464 15.7187 8.31464 15C8.31464 14.2813 8.6508 13.7022 9.13232 13.2553C9.58789 12.8325 10.208 12.4921 10.9076 12.1879C12.2927 11.5857 14.3312 10.9868 16.9194 10.2263L16.9992 10.2028L30.7114 6.17363L30.7839 6.15233C31.5623 5.92352 32.2517 5.72088 32.798 5.6438Z" fill="#0D0D0D" fill-opacity="0.62"/>
</svg>
