<svg width="79" height="48" viewBox="0 0 79 48" fill="none" xmlns="http://www.w3.org/2000/svg">
<path d="M39.3373 0.460205C28.8474 0.460205 22.2911 5.70518 19.6686 16.1951C23.6024 10.9502 28.1917 8.98329 33.4367 10.2945C36.4293 11.0427 38.5682 13.2136 40.9357 15.6169C44.7925 19.5317 49.2563 24.0626 59.0059 24.0626C69.4959 24.0626 76.0521 18.8176 78.6746 8.32766C74.7409 13.5726 70.1515 15.5395 64.9065 14.2283C61.914 13.4801 59.7751 11.3091 57.4075 8.90592C53.5507 4.99113 49.087 0.460205 39.3373 0.460205ZM19.6686 24.0626C9.1787 24.0626 2.62249 29.3076 0 39.7975C3.93373 34.5525 8.52308 32.5857 13.7681 33.8969C16.7606 34.645 18.8995 36.816 21.2671 39.2192C25.1239 43.134 29.5876 47.665 39.3373 47.665C49.8272 47.665 56.3835 42.42 59.0059 31.93C55.0722 37.175 50.4829 39.1419 45.2379 37.8306C42.2453 37.0825 40.1064 34.9115 37.7389 32.5083C33.8821 28.5935 29.4183 24.0626 19.6686 24.0626Z" fill="#3E3F40"/>
</svg>
