<svg width="80" height="81" viewBox="0 0 80 81" fill="none" xmlns="http://www.w3.org/2000/svg">
<path d="M0.379365 1.82222C0.215576 1.15915 0.830557 0.567193 1.4869 0.756157L20.6114 6.26216C20.7826 6.26155 20.9519 6.31032 21.0965 6.40192L58.8141 17.261C58.9705 17.2642 59.1244 17.3085 59.2586 17.3888L78.3845 22.8955C79.0416 23.0846 79.2472 23.9144 78.7544 24.3885L21.0392 79.9059C20.5466 80.3797 19.7257 80.1425 19.5618 79.4789L9.98798 40.7212C9.97517 40.6814 9.96512 40.6407 9.95792 40.5996L0.379365 1.82222ZM16.7615 60.7391L20.9165 77.5598L33.4288 65.5235L16.7615 60.7391ZM29.6498 47.4369L17.5357 59.1138L33.6738 63.7468L29.6498 47.4369ZM31.4481 47.3121L35.4593 63.5704L47.5405 51.9493L31.4481 47.3121ZM12.0653 41.7269L16.094 58.0374L28.1939 46.3745L12.0653 41.7269ZM43.9359 33.651L31.6273 45.5155L48.0302 50.2423L43.9359 33.651ZM45.6606 33.2291L49.7547 49.8196L62.0971 37.9474L45.6606 33.2291ZM24.8914 28.1457L12.5564 40.0205L28.9892 44.7555L24.8914 28.1457ZM26.6095 27.6977L30.6335 44.0072L42.7477 32.3303L26.6095 27.6977ZM7.23171 22.159L11.3271 38.7394L23.6532 26.873L7.23171 22.159ZM58.3061 19.857L46.192 31.534L62.3301 36.167L58.3061 19.857ZM60.0374 19.4607L64.1187 36.0027L76.4139 24.1758L60.0374 19.4607ZM39.1827 14.3881L27.1229 25.9978L43.1851 30.6085L39.1827 14.3881ZM40.9038 13.952L44.9334 30.2812L57.0512 18.6008L40.9038 13.952ZM20.125 8.85841L8.01082 20.5353L24.149 25.1684L20.125 8.85841ZM21.8578 8.4684L25.8718 24.7371L37.9566 13.1034L21.8578 8.4684ZM2.47133 2.887L6.56574 19.4626L18.8654 7.60698L2.47133 2.887Z" fill="#565a64"/>
</svg>
