<svg width="128" height="128" viewBox="0 0 128 128" fill="none" xmlns="http://www.w3.org/2000/svg">
<path d="M22.67 47H122.34V120.67H22.67V47Z" fill="white"/>
<path d="M1.5 63.9099V126.41H126.5V1.40991H1.5V63.9099ZM102.23 58.9099C105.224 59.6047 107.945 61.1705 110.05 63.4099C111.209 64.6164 112.216 65.9596 113.05 67.4099C113.05 67.5699 107.65 71.2199 104.36 73.2599C104.24 73.3399 103.76 72.8199 103.23 72.0299C102.629 70.9936 101.776 70.1263 100.75 69.509C99.7231 68.8917 98.557 68.5446 97.36 68.4999C93.57 68.2399 91.13 70.2299 91.15 73.4999C91.1187 74.3141 91.3051 75.1218 91.69 75.8399C92.52 77.5699 94.07 78.5999 98.93 80.6999C107.88 84.5499 111.71 87.0899 114.09 90.6999C116.75 94.6999 117.34 101.16 115.54 105.94C113.54 111.14 108.64 114.67 101.71 115.84C98.5448 116.202 95.3468 116.169 92.19 115.74C87.3516 114.942 82.8948 112.619 79.47 109.11C78.32 107.84 76.08 104.53 76.22 104.29C76.5851 104.019 76.9694 103.775 77.37 103.56L82 101L85.59 98.9199L86.34 100.03C87.6057 101.841 89.2166 103.383 91.08 104.57C95.08 106.67 100.54 106.38 103.24 103.95C104.147 103.059 104.712 101.879 104.838 100.615C104.964 99.3504 104.643 98.0818 103.93 97.0299C102.93 95.6399 100.93 94.4699 95.34 92.0299C88.89 89.2499 86.11 87.5299 83.57 84.7899C81.9843 82.9818 80.8136 80.8486 80.14 78.5399C79.6375 75.9024 79.5633 73.2011 79.92 70.5399C81.25 64.3099 85.92 59.9599 92.74 58.6699C95.8984 58.2791 99.0977 58.3668 102.23 58.9299V58.9099ZM72.89 64.1499V69.2699H56.66V115.5H45.15V69.2599H28.88V64.2599C28.8293 62.5357 28.8694 60.8099 29 59.0899C29.08 58.9999 39 58.9999 51 58.9999H72.83L72.89 64.1499Z" fill="#3E3F40"/>
</svg>
