<svg width="128" height="128" viewBox="0 0 128 128" fill="none" xmlns="http://www.w3.org/2000/svg">
<path d="M124.766 19.52L67.3239 122.238C66.1369 124.359 63.0899 124.371 61.8869 122.262L3.30489 19.532C1.99189 17.23 3.95689 14.445 6.56589 14.91L64.0699 25.187C64.4369 25.254 64.8129 25.254 65.1799 25.187L121.48 14.926C124.078 14.453 126.055 17.215 124.766 19.52Z" fill="#3E3F40" fill-opacity="0.21"/>
<path d="M91.46 1.42999L48.954 9.75799C48.6148 9.82428 48.3071 10.0014 48.0794 10.2615C47.8517 10.5216 47.7169 10.8499 47.696 11.195L45.079 55.363C45.065 55.6052 45.1075 55.8474 45.2032 56.0703C45.299 56.2932 45.4453 56.4908 45.6306 56.6474C45.8159 56.804 46.0351 56.9153 46.2709 56.9725C46.5067 57.0297 46.7526 57.0313 46.989 56.977L58.825 54.242C59.08 54.1834 59.3455 54.1898 59.5973 54.2605C59.8491 54.3312 60.0791 54.4641 60.2662 54.6468C60.4533 54.8296 60.5916 55.0564 60.6682 55.3064C60.7449 55.5565 60.7576 55.8218 60.705 56.078L57.188 73.297C57.1343 73.562 57.1503 73.8365 57.2344 74.0935C57.3185 74.3505 57.4679 74.5812 57.668 74.7631C57.8681 74.9451 58.112 75.0719 58.3758 75.1313C58.6396 75.1907 58.9143 75.1806 59.173 75.102L66.481 72.879C67.614 72.535 68.704 73.531 68.466 74.691L62.876 101.738C62.528 103.43 64.778 104.352 65.716 102.902L66.341 101.934L100.981 32.804C101.563 31.644 100.56 30.324 99.291 30.57L87.106 32.922C86.8438 32.9729 86.5729 32.9556 86.3194 32.8717C86.0658 32.7878 85.8381 32.64 85.658 32.4427C85.478 32.2454 85.3517 32.0051 85.2913 31.745C85.2309 31.4848 85.2384 31.2134 85.313 30.957L93.263 3.39499C93.3378 3.13763 93.345 2.86536 93.2839 2.60442C93.2228 2.34349 93.0956 2.10268 92.9144 1.90522C92.7332 1.70775 92.5042 1.5603 92.2495 1.47706C91.9947 1.39382 91.7229 1.37761 91.46 1.42999Z" fill="#3E3F40"/>
</svg>
