<svg width="110" height="135" viewBox="0 0 110 135" fill="none" xmlns="http://www.w3.org/2000/svg">
<path d="M55 13.125C29.152 13.125 8.125 34.152 8.125 60C8.125 85.848 29.152 106.875 55 106.875C80.848 106.875 101.875 85.848 101.875 60C101.875 34.152 80.848 13.125 55 13.125ZM74.73 80.738C75.9019 75.4177 76.6128 69.484 76.7886 63.125H95.4956C94.894 70.9844 92.0425 78.215 87.5894 84.191C83.3746 82.7496 79.0773 81.6013 74.73 80.738ZM22.41 84.1911C17.953 78.2145 15.1053 70.9841 14.5038 63.1251H33.2108C33.3905 69.4845 34.1014 75.4141 35.2694 80.7381C30.9217 81.6014 26.6249 82.7498 22.4064 84.1873L22.41 84.1911ZM35.269 39.2811C34.101 44.5975 33.3901 50.5231 33.2104 56.8751H14.5034C15.105 49.0157 17.9526 41.7851 22.4096 35.8131C26.6323 37.2584 30.9217 38.4139 35.269 39.2811ZM41.4331 40.3358C45.9097 40.9413 50.4409 41.2499 54.9991 41.2499C59.5573 41.2499 64.085 40.9452 68.5651 40.3358C69.6628 45.2069 70.3698 50.7808 70.5573 56.8748H39.4403C39.6278 50.785 40.3393 45.2108 41.4331 40.3358ZM39.4409 63.1248H70.5579C70.3704 69.2264 69.6595 74.8088 68.5618 79.6868C59.5696 78.4759 50.4368 78.4759 41.4448 79.6868C40.3432 74.8079 39.6323 69.2258 39.4487 63.1248H39.4409ZM76.7889 56.8748C76.6092 50.5232 75.8983 44.5978 74.7303 39.2808C79.078 38.4136 83.3709 37.2574 87.5893 35.8081C92.0463 41.7847 94.894 49.0151 95.4955 56.8741L76.7889 56.8748ZM83.0662 30.7148C79.8006 31.7265 76.492 32.5586 73.1521 33.207C71.699 28.5976 69.8748 24.6211 67.7419 21.449C73.5427 23.3709 78.7499 26.5818 83.0659 30.7107L83.0662 30.7148ZM54.9962 19.3748C59.254 19.3748 63.7853 24.9373 66.8672 34.2188C58.9883 35.211 51.0042 35.211 43.1252 34.2188C46.2072 24.9415 50.7385 19.3788 54.9962 19.3788V19.3748ZM36.8482 33.2068C33.5084 32.5584 30.1998 31.7263 26.9341 30.7146C31.2505 26.5818 36.4575 23.3748 42.2541 21.4529C40.1213 24.617 38.2971 28.6013 36.8439 33.2069L36.8482 33.2068ZM26.9341 89.2888C30.1958 88.2771 33.5044 87.449 36.8443 86.7966C38.2935 91.4021 40.1177 95.3825 42.2466 98.5466C36.4536 96.6247 31.2501 93.4177 26.9341 89.2888ZM55.0001 100.625C50.7423 100.625 46.211 95.0623 43.1291 85.7848C51.0119 84.7926 58.9961 84.7926 66.8711 85.7848C63.7891 95.0621 59.2578 100.625 55.0001 100.625ZM73.1561 86.7928C76.4959 87.4412 79.8045 88.2694 83.0702 89.285C78.7538 93.4139 73.5468 96.6209 67.7542 98.5428C69.8831 95.3787 71.7069 91.3983 73.1561 86.7928Z" fill="#3E3F40"/>
</svg>
